<?xml version="1.0" encoding="utf-8"?>
<!-- Svg Vector Icons : http://www.onlinewebfonts.com/icon -->
<!DOCTYPE svg PUBLIC "-//W3C//DTD SVG 1.1//EN" "http://www.w3.org/Graphics/SVG/1.1/DTD/svg11.dtd">
<svg version="1.1" xmlns="http://www.w3.org/2000/svg" xmlns:xlink="http://www.w3.org/1999/xlink" x="0px" y="0px" viewBox="0 0 1000 1000" enable-background="new 0 0 1000 1000" xml:space="preserve">
<metadata> Svg Vector Icons : http://www.onlinewebfonts.com/icon </metadata>
<g><g><path d="M846.7,153.4c-191.2-191.2-502.2-191.2-693.3,0c-191.2,191.1-191.1,502.2,0,693.3c191.1,191.1,502.1,191.1,693.3,0C1037.8,655.5,1037.8,344.5,846.7,153.4z M793.2,793.2c-161.7,161.6-424.7,161.7-586.3,0c-161.7-161.7-161.7-424.7,0-586.4c161.6-161.6,424.7-161.7,586.4,0C954.8,368.5,954.8,631.5,793.2,793.2z M721.7,693.8c6.1,14-0.4,30.4-14.4,36.4c-14.1,6.1-30.4-0.4-36.4-14.4C644,654,580.9,614,509.8,614c-72.7,0-136.3,39.9-161.9,101.7c-4.4,10.7-14.7,17.1-25.6,17.1c-3.5,0-7.1-0.7-10.6-2.1c-14.1-5.9-20.8-22.1-15-36.2c34.3-82.5,117.9-135.9,213.1-135.9C603,558.6,686.1,611.7,721.7,693.8z M317.1,367.3c0-31.6,25.7-57.3,57.3-57.3c31.6,0,57.3,25.7,57.3,57.3c0,31.7-25.7,57.3-57.3,57.3C342.8,424.6,317.1,399,317.1,367.3z M576.9,367.3c0-31.6,25.7-57.3,57.3-57.3c31.6,0,57.3,25.7,57.3,57.3c0,31.7-25.7,57.3-57.3,57.3S576.9,399,576.9,367.3z"/></g><g></g><g></g><g></g><g></g><g></g><g></g><g></g><g></g><g></g><g></g><g></g><g></g><g></g><g></g><g></g></g>
</svg>