<?xml version="1.0" standalone="no"?>
<!DOCTYPE svg PUBLIC "-//W3C//DTD SVG 20010904//EN"
 "http://www.w3.org/TR/2001/REC-SVG-20010904/DTD/svg10.dtd">
<svg version="1.0" xmlns="http://www.w3.org/2000/svg"
 width="840.000000pt" height="492.000000pt" viewBox="0 0 840.000000 492.000000"
 preserveAspectRatio="xMidYMid meet">

<g transform="translate(0.000000,492.000000) scale(0.100000,-0.100000)"
fill="#000000" stroke="none">
<path d="M3988 4557 c13 -39 17 -88 17 -197 -1 -132 -3 -152 -28 -223 -57
-164 -118 -267 -344 -585 -172 -241 -234 -338 -307 -480 -211 -415 -231 -834
-60 -1323 20 -57 42 -116 50 -131 47 -92 -146 66 -223 182 -108 161 -204 443
-229 669 l-7 64 -24 -47 c-66 -130 -127 -376 -139 -557 -18 -278 66 -623 216
-889 142 -250 376 -483 582 -580 189 -88 431 -95 587 -16 137 70 206 212 181
371 -18 110 -64 205 -204 414 -290 434 -409 756 -409 1111 0 303 97 561 295
788 57 65 167 166 174 159 2 -2 -8 -32 -22 -66 -123 -303 -115 -605 22 -871
69 -134 161 -247 413 -505 128 -132 262 -278 297 -325 182 -242 223 -441 143
-688 -12 -35 -24 -60 -28 -55 -4 4 -20 42 -35 85 -95 265 -271 479 -485 588
-66 33 -123 52 -114 37 4 -7 31 -47 60 -90 218 -326 279 -637 169 -855 -40
-78 -120 -165 -207 -223 -53 -37 290 39 451 98 416 155 713 433 836 783 58
166 68 232 69 430 0 158 -3 200 -23 290 -44 196 -115 360 -237 545 -93 141
-159 272 -200 399 -52 161 -60 221 -59 431 0 169 3 200 25 281 l25 92 -36 -13
c-105 -37 -238 -125 -321 -212 -72 -76 -110 -130 -156 -222 l-43 -86 0 123
c-1 457 -137 854 -383 1118 -72 77 -201 180 -268 214 l-38 20 17 -53z m987
-1956 c28 -76 116 -239 194 -360 145 -225 194 -369 194 -571 0 -71 -7 -142
-17 -185 -17 -74 -65 -213 -75 -219 -3 -2 -6 30 -7 72 0 43 -6 102 -13 132
-21 88 -84 208 -158 299 -37 46 -94 115 -126 155 -73 89 -142 229 -162 324
-35 172 -7 376 77 560 l31 67 23 -114 c12 -63 30 -135 39 -160z"/>
</g>
</svg>
