<svg width="26" height="26" viewBox="0 0 26 26" fill="none" xmlns="http://www.w3.org/2000/svg">
<g clip-path="url(#clip0_1_2)">
<path d="M0.0769348 8.57932V17.4206H5.82052L13 24.7884V1.21154L5.82052 8.57932H0.0769348ZM19.4615 13C19.4615 10.3918 17.9969 8.15198 15.8718 7.06155V18.9237C17.9969 17.848 19.4615 15.6082 19.4615 13ZM15.8718 0.0769043V3.11243C20.0215 4.37968 23.0513 8.32881 23.0513 13C23.0513 17.6712 20.0215 21.6203 15.8718 22.8875V25.9231C21.6298 24.5821 25.9231 19.3068 25.9231 13C25.9231 6.69317 21.6298 1.41784 15.8718 0.0769043Z" fill="white"/>
<rect x="-1.68527" y="23.4304" width="35.0991" height="4.4525" transform="rotate(-43.804 -1.68527 23.4304)" fill="#F5573F"/>
</g>
<defs>
<clipPath id="clip0_1_2">
<rect width="26" height="26" fill="white"/>
</clipPath>
</defs>
</svg>
