<svg width="102" height="55" viewBox="0 0 102 55" fill="none" xmlns="http://www.w3.org/2000/svg">
<path d="M70.3756 13.28L83.7131 0.767962H101.216V12.9152L94.2734 22.228L70.3756 13.28Z" fill="#40AA3A"/>
<path d="M70.3756 42.432L83.7131 54.944H101.216V42.7968L94.2734 33.484L70.3756 42.432Z" fill="#40AA3A"/>
<path d="M0.0214844 27.6892C0.0218641 27.7077 0.0259773 27.7259 0.0267495 27.7443C0.028433 27.7828 0.0288628 27.8213 0.0320146 27.8596C0.0335335 27.8795 0.0352924 27.8997 0.0372797 27.9197C0.0463554 28.0105 0.0612147 28.1029 0.0794585 28.1953C0.0879646 28.2383 0.100528 28.2821 0.11109 28.3256C0.117254 28.3507 0.120127 28.3757 0.126897 28.4007C0.131871 28.4192 0.137352 28.4373 0.142705 28.4558C0.149186 28.4782 0.156842 28.4987 0.163793 28.521C0.175868 28.5597 0.186924 28.5972 0.200697 28.6362C0.206557 28.6529 0.215679 28.6696 0.221786 28.6863C0.260985 28.7921 0.301542 28.899 0.353592 29.007C18.3734 55.8681 29.9705 53.5891 57.1077 47.9706C71.3567 45.021 81.1514 39.9371 95.8738 35.6296V30.4644V24.7977V20.0927C81.1527 15.786 69.9998 12.0891 55.9014 8.54896C33.5248 2.93042 18.3746 -0.610935 0.354859 26.2509C0.278225 26.4099 0.219443 26.5677 0.170331 26.7219C0.165103 26.7383 0.159447 26.7556 0.154524 26.772C0.147081 26.7968 0.140284 26.8223 0.133434 26.8472C0.12522 26.8771 0.119585 26.9076 0.112347 26.9373C0.101689 26.9809 0.0894839 27.0238 0.0807158 27.0676C0.0626859 27.1593 0.0475514 27.2481 0.038539 27.3382C0.0327037 27.3966 0.0302104 27.4558 0.0279953 27.5135C0.0262864 27.5521 0.0228548 27.59 0.0227282 27.6288C0.0227662 27.6484 0.0222219 27.6693 0.0227282 27.6889L0.0214844 27.6892Z" fill="#40AA3A"/>
<path d="M100.159 30.0224V26.3863L73.1978 25.9568L70.4387 27.7891L73.1978 29.6216L100.159 30.0224Z" fill="#40AA3A"/>
<path d="M43.2602 17.9655C42.1918 18.6898 41.296 19.5772 40.543 20.6547C39.301 22.4304 38.6134 24.5489 38.5509 26.7918L38.5414 27.1273L42.0412 27.1005L45.5426 27.0736L45.5423 26.9982C45.5421 26.9562 45.5495 26.8488 45.5585 26.7582C45.6527 25.7797 46.1348 24.9139 46.8838 24.3782L47.0302 24.273L46.9845 24.1879C45.8434 22.0783 43.5157 17.8209 43.5016 17.8194C43.4907 17.8178 43.3816 17.884 43.2602 17.9655Z" fill="white"/>
<path d="M53.0922 18.4821C52.4661 19.6626 50.0411 24.2281 50.0349 24.2399C50.0318 24.2467 50.0867 24.2898 50.1556 24.338C50.8291 24.8024 51.3148 25.5568 51.4729 26.3824C51.508 26.5667 51.5388 26.8331 51.5393 26.9522L51.5396 27.0276L55.041 27.0008L58.5408 26.974L58.5285 26.642C58.488 25.5538 58.3103 24.5237 57.9891 23.5315C57.2739 21.3147 55.9057 19.4199 54.0714 18.109C53.8035 17.9182 53.5279 17.7375 53.5045 17.7376C53.4951 17.7377 53.3106 18.0729 53.0922 18.4821Z" fill="white"/>
<path d="M48.259 24.9312C47.2055 25.0969 46.443 26.1426 46.557 27.2621C46.6092 27.785 46.7984 28.2079 47.1404 28.5726C47.4839 28.9356 47.8799 29.1338 48.3658 29.1837C48.9283 29.2432 49.5115 29.019 49.9267 28.5847C50.6559 27.8211 50.7415 26.6195 50.1288 25.7487C49.6967 25.1348 48.9723 24.8183 48.259 24.9312Z" fill="white"/>
<path d="M46.2664 31.3349C43.4772 36.5841 43.5918 36.3652 43.6154 36.3885C43.653 36.4251 44.1242 36.6848 44.3887 36.8153C45.4513 37.3355 46.513 37.6326 47.7286 37.7524C48.1176 37.7897 49.0468 37.7826 49.4433 37.7376C50.636 37.606 51.7045 37.2909 52.7518 36.7629C52.9762 36.6505 53.4748 36.3666 53.5324 36.3192L53.5666 36.2904L51.8699 33.1704C50.9366 31.4534 50.1449 29.9986 50.1119 29.9385L50.0521 29.8283L49.8682 29.9269C49.5503 30.0971 49.2103 30.2054 48.8482 30.2501C48.319 30.3162 47.7297 30.205 47.2351 29.9471L47.0536 29.8529L46.2664 31.3349Z" fill="white"/>
</svg>
