<svg width="102" height="55" viewBox="0 0 102 55" fill="none" xmlns="http://www.w3.org/2000/svg">
<path d="M70.3756 13.28L83.7131 0.767962H101.216V12.9152L94.2734 22.228L70.3756 13.28Z" fill="#40AA3A"/>
<path d="M70.3756 42.432L83.7131 54.944H101.216V42.7968L94.2734 33.484L70.3756 42.432Z" fill="#40AA3A"/>
<path d="M0.0214844 27.6892C0.0218641 27.7077 0.0259773 27.7259 0.0267495 27.7443C0.028433 27.7828 0.0288628 27.8214 0.0320146 27.8596C0.0335335 27.8795 0.0352924 27.8997 0.0372797 27.9197C0.0463554 28.0105 0.0612147 28.1029 0.0794585 28.1953C0.0879646 28.2383 0.100528 28.2821 0.11109 28.3256C0.117254 28.3507 0.120127 28.3757 0.126897 28.4007C0.131871 28.4192 0.137352 28.4373 0.142705 28.4558C0.149186 28.4782 0.156842 28.4987 0.163793 28.521C0.175868 28.5597 0.186924 28.5972 0.200697 28.6362C0.206557 28.6529 0.215679 28.6696 0.221786 28.6863C0.260985 28.7921 0.301542 28.899 0.353592 29.007C18.3734 55.8681 29.9705 53.5891 57.1077 47.9706C71.3567 45.021 81.1514 39.9371 95.8738 35.6296V30.4644V24.7977V20.0927C81.1527 15.786 69.9998 12.0891 55.9014 8.54896C33.5248 2.93042 18.3746 -0.610935 0.354859 26.2509C0.278225 26.4099 0.219443 26.5677 0.170331 26.7219C0.165103 26.7383 0.159447 26.7556 0.154524 26.772C0.147081 26.7968 0.140284 26.8223 0.133434 26.8472C0.12522 26.8771 0.119585 26.9076 0.112347 26.9373C0.101689 26.9809 0.0894839 27.0238 0.0807158 27.0676C0.0626859 27.1593 0.0475514 27.2481 0.038539 27.3382C0.0327037 27.3966 0.0302104 27.4558 0.0279953 27.5135C0.0262864 27.5521 0.0228548 27.59 0.0227282 27.6288C0.0227662 27.6484 0.0222219 27.6693 0.0227282 27.6889L0.0214844 27.6892Z" fill="#40AA3A"/>
<path d="M100.159 30.0224V26.3863L73.1978 25.9568L70.4387 27.7891L73.1978 29.6216L100.159 30.0224Z" fill="#40AA3A"/>
</svg>
