<svg width="49" height="35" viewBox="0 0 49 35" fill="none" xmlns="http://www.w3.org/2000/svg">
<path d="M34.2106 8.66197L40.5371 0.809652H48.8391V8.43304L45.5462 14.2776L34.2106 8.66197Z" fill="#40AA3A"/>
<path d="M34.2106 26.9573L40.5371 34.8096H48.8391V27.1862L45.5462 21.3416L34.2106 26.9573Z" fill="#40AA3A"/>
<path d="M0.839111 17.705C0.839291 17.7166 0.841243 17.728 0.841609 17.7396C0.842407 17.7637 0.842611 17.7879 0.844106 17.8119C0.844827 17.8244 0.845661 17.837 0.846604 17.8496C0.850909 17.9066 0.857957 17.9646 0.866611 18.0226C0.870645 18.0496 0.876605 18.0771 0.881614 18.1043C0.884538 18.1201 0.885901 18.1358 0.889112 18.1515C0.891472 18.1631 0.894072 18.1744 0.896611 18.1861C0.899685 18.2001 0.903317 18.213 0.906613 18.227C0.912341 18.2513 0.917585 18.2748 0.924118 18.2993C0.926898 18.3098 0.931225 18.3203 0.934122 18.3307C0.952715 18.3971 0.971953 18.4642 0.996642 18.532C9.54406 35.3896 15.045 33.9593 27.9172 30.4332C34.676 28.5821 39.3219 25.3915 46.3053 22.6882V19.4466V15.8903V12.9375C39.3225 10.2347 34.0323 7.91462 27.345 5.69288C16.731 2.16678 9.54466 -0.0557159 0.997243 16.8023C0.960893 16.9021 0.93301 17.0011 0.909715 17.0979C0.907235 17.1082 0.904552 17.1191 0.902217 17.1293C0.898686 17.1449 0.895462 17.1609 0.892213 17.1765C0.888317 17.1953 0.885644 17.2145 0.882211 17.2331C0.877155 17.2604 0.871366 17.2874 0.867207 17.3149C0.858655 17.3724 0.851476 17.4281 0.847201 17.4847C0.844433 17.5213 0.84325 17.5585 0.8422 17.5947C0.841389 17.6189 0.839761 17.6427 0.839701 17.6671C0.839719 17.6794 0.839461 17.6925 0.839701 17.7048L0.839111 17.705Z" fill="#40AA3A"/>
<path d="M48.338 19.1693V16.8873L35.5493 16.6178L34.2406 17.7677L35.5493 18.9177L48.338 19.1693Z" fill="#40AA3A"/>
</svg>
