<svg width="1201" height="956" viewBox="0 0 1201 956" fill="none" xmlns="http://www.w3.org/2000/svg">
<rect x="311.551" y="129.173" width="535.421" height="364.775" rx="100" fill="#6E979D"/>
<rect x="345.988" y="163.615" width="466.536" height="295.89" rx="100" fill="#2E3037"/>
<path d="M241.102 264.155C241.102 255.319 248.265 248.155 257.102 248.155H319.379V367.138H256.102C247.817 367.138 241.102 360.422 241.102 352.138V264.155Z" fill="#6E979D"/>
<path d="M917.426 351.138C917.426 359.974 910.262 367.138 901.426 367.138H839.148V248.155H902.426C910.71 248.155 917.426 254.871 917.426 263.155V351.138Z" fill="#6E979D"/>
<ellipse cx="483.761" cy="307.647" rx="51.6634" ry="48.5323" fill="#41AA3A"/>
<ellipse cx="691.98" cy="307.647" rx="51.6634" ry="48.5323" fill="#41AA3A"/>
<path d="M374.176 591.012H792.18V815.845C792.18 874.111 744.946 921.345 686.68 921.345H479.676C421.41 921.345 374.176 874.111 374.176 815.845V591.012Z" fill="#6E979D"/>
<path d="M592.62 740.185C589.632 745.93 581.414 745.93 578.426 740.185L523.813 635.189C521.043 629.864 524.908 623.498 530.911 623.498H640.135C646.138 623.498 650.002 629.864 647.232 635.189L592.62 740.185Z" fill="#FAFAFA"/>
<ellipse cx="583.178" cy="594.927" rx="209.002" ry="47.7495" fill="#1B1C20"/>
<ellipse cx="585.527" cy="574.575" rx="180.039" ry="27.3973" fill="#6E979D"/>
<path d="M706.821 441.45L700.843 447.622L710.126 457.205L714.736 444.515C736.024 385.914 765.454 353.45 789.088 335.655C798.378 328.66 806.828 323.89 813.618 320.686C796.74 370.745 803.168 423.561 813.964 478.909C816.423 491.516 819.11 504.266 821.834 517.191C832.686 568.684 844.126 622.969 844.126 682.192C844.126 826.949 730.444 944.297 590.213 944.297C449.982 944.297 336.301 826.949 336.301 682.192C336.301 626.926 348.653 587.41 361.304 546.942C363.774 539.039 366.256 531.1 368.659 523C382.202 477.36 392.634 428.092 382.625 355.14C391.771 362.594 403.791 373.719 415.813 388.712C440.492 419.486 465.153 466.482 465.153 531.729V551.863L479.387 538.097L473.607 531.729C479.387 538.097 479.397 538.087 479.407 538.078L479.427 538.058L479.469 538.017L479.562 537.924C479.625 537.86 479.695 537.786 479.77 537.706C479.922 537.544 480.095 537.351 480.289 537.123C480.676 536.666 481.143 536.071 481.674 535.311C482.736 533.793 484.05 531.624 485.488 528.605C488.361 522.575 491.751 513.117 494.636 498.577C500.395 469.547 504.237 419.751 497.547 335.415C490.001 240.28 522.229 178.677 555.949 140.787C572.891 121.749 590.306 108.602 603.459 100.229C605.351 99.025 607.153 97.9209 608.85 96.9131C585.282 196.638 606.193 282.134 633.889 343.57C648.604 376.212 665.257 402.128 678.248 419.904C684.747 428.799 690.342 435.671 694.336 440.346C696.333 442.684 697.932 444.474 699.045 445.694C699.602 446.303 700.037 446.771 700.34 447.093L700.694 447.467L700.795 447.572L700.825 447.603L700.836 447.614C700.839 447.618 700.843 447.622 706.821 441.45Z" fill="#CF2323"/>
<path d="M779.597 746.332C779.597 858.985 695.332 955.158 586.221 952.985C483.538 950.943 407.14 870.292 415.305 764.944C418.95 717.925 453.566 641.753 510.047 564.642L547.702 588.151C546.486 492.86 590.214 366.22 590.214 366.22C618.938 499.651 779.597 534.236 779.597 746.332Z" fill="#E74141"/>
<path d="M517.333 652.099C502.757 742.377 473.605 775.244 473.605 832.654C473.605 892.839 525.814 953.028 590.212 953.028C655.078 953.028 706.999 898.316 706.819 831.358C706.332 651.524 604.79 561.822 604.79 561.822C619.366 652.1 575.638 697.238 575.638 697.238C557.422 669.036 517.333 652.099 517.333 652.099Z" fill="#E76E6E"/>
<path d="M773.506 136.222C773.506 136.222 767.122 32.1073 788.324 11.3531C809.526 -9.40107 924.461 33.6728 948.173 18.3393C971.885 3.00589 1013.44 -101.588 1013.44 -101.588" stroke="#41AA3A" stroke-width="2"/>
<path d="M376.514 140.131C376.514 140.131 235.614 83.771 228.569 43.8493C221.524 3.92758 327.983 -28.9491 346.768 -50.8669C365.554 -72.7848 286.494 -113.489 286.494 -113.489" stroke="#41AA3A" stroke-width="2"/>
<path d="M492.371 93.1645C492.371 93.1645 428.966 19.5832 439.925 -3.11734C450.884 -25.8179 536.206 -58.6946 535.424 -84.5264C534.642 -110.358 459.496 -131.493 449.319 -169.849C439.142 -208.205 587.087 -245.779 587.087 -245.779" stroke="#41AA3A" stroke-width="2"/>
<path d="M664.582 100.992C664.582 100.992 739.729 46.1977 745.991 13.321C752.253 -19.5558 678.672 -48.5186 664.582 -76.6986C650.492 -104.879 789.046 -107.227 810.178 -133.059C831.31 -158.89 742.859 -263 742.859 -263" stroke="#41AA3A" stroke-width="2"/>
<path d="M943.246 335.825C943.246 335.825 1012.13 303.731 1041.88 309.993C1071.62 316.256 1073.19 392.185 1114.67 395.316C1156.16 398.447 1200 379.661 1200 379.661" stroke="#41AA3A" stroke-width="2"/>
<path d="M940.121 264.593C940.121 264.593 983.174 298.252 997.264 291.99C1011.35 285.728 997.264 244.241 1020.75 241.892C1044.23 239.544 1077.11 285.728 1104.5 284.945C1131.9 284.162 1133.47 264.593 1133.47 264.593" stroke="#41AA3A" stroke-width="2"/>
<path d="M215.264 289.642C215.264 289.642 196.477 218.409 169.08 208.233C141.683 198.057 118.2 284.946 82.1918 283.38C46.1839 281.815 50.8806 206.668 39.1389 187.098C27.3973 167.529 0 167.529 0 167.529" stroke="#41AA3A" stroke-width="2"/>
<path d="M198.049 342.088C198.049 342.088 183.959 388.272 155.779 392.186C127.599 396.1 130.731 325.65 112.727 327.216C94.7227 328.781 95.5055 342.088 79.8499 358.527C64.1943 374.965 22.707 327.216 22.707 327.216" stroke="#41AA3A" stroke-width="2"/>
</svg>
