<svg width="650" height="762" viewBox="0 0 650 762" fill="none" xmlns="http://www.w3.org/2000/svg">
<rect x="67.7109" width="514.583" height="350.579" rx="100" fill="#6E979D"/>
<rect x="100.809" y="33.1021" width="448.38" height="284.375" rx="100" fill="#2E3037"/>
<path d="M0 130.352C0 121.516 7.16345 114.352 16 114.352H75.2315V228.704H15C6.71573 228.704 0 221.988 0 213.704V130.352Z" fill="#6E979D"/>
<path d="M650 212.704C650 221.541 642.837 228.704 634 228.704H574.769V114.352L635 114.352C643.284 114.352 650 121.068 650 129.352V212.704Z" fill="#6E979D"/>
<ellipse cx="233.219" cy="171.527" rx="49.6528" ry="46.6435" fill="#41AA3A"/>
<ellipse cx="433.332" cy="171.527" rx="49.6528" ry="46.6435" fill="#41AA3A"/>
<path d="M127.891 443.866H529.627V655.843C529.627 714.109 482.393 761.343 424.127 761.343H233.391C175.125 761.343 127.891 714.109 127.891 655.843V443.866Z" fill="#6E979D"/>
<path d="M338.116 586.702C335.128 592.447 326.909 592.447 323.921 586.702L271.947 486.779C269.177 481.453 273.042 475.087 279.045 475.087H382.992C388.995 475.087 392.86 481.453 390.09 486.779L338.116 586.702Z" fill="#FAFAFA"/>
<ellipse cx="328.759" cy="447.628" rx="200.868" ry="45.8912" fill="#1B1C20"/>
<ellipse cx="331.017" cy="428.067" rx="173.032" ry="26.331" fill="#6E979D"/>
</svg>
