<svg width="100" height="101" viewBox="0 0 100 101" fill="none" xmlns="http://www.w3.org/2000/svg">
<g clip-path="url(#clip0_2_49)">
<path d="M63.7932 42.0626L63.0861 42.7698L64.1842 43.8679L64.7295 42.4138C67.2476 35.6988 70.7288 31.9788 73.5244 29.9396C74.6233 29.1381 75.6228 28.5915 76.426 28.2243C74.4295 33.9606 75.1898 40.0127 76.4669 46.355C76.7578 47.7996 77.0756 49.2606 77.3978 50.7417C78.6814 56.6422 80.0346 62.8627 80.0346 69.649C80.0346 86.2367 66.5876 99.6835 50 99.6835C33.4125 99.6835 19.9655 86.2367 19.9655 69.649C19.9655 63.3161 21.4266 58.7881 22.923 54.1509C23.2152 53.2453 23.5088 52.3355 23.7931 51.4074C25.395 46.1775 26.629 40.5319 25.4451 32.1724C26.5269 33.0265 27.9487 34.3014 29.3708 36.0194C32.29 39.5458 35.2071 44.931 35.2071 52.4076V54.7148L36.8908 53.1373L36.2071 52.4076C36.8908 53.1373 36.8919 53.1362 36.8931 53.1351L36.8955 53.1328L36.9005 53.1281L36.9114 53.1175C36.9189 53.1101 36.9272 53.1017 36.9361 53.0925C36.954 53.074 36.9745 53.0518 36.9974 53.0257C37.0432 52.9733 37.0985 52.9051 37.1613 52.8181C37.2869 52.6441 37.4423 52.3956 37.6124 52.0496C37.9523 51.3587 38.3533 50.2749 38.6945 48.6087C39.3757 45.2822 39.8302 39.5761 39.0389 29.9121C38.1463 19.0107 41.9584 11.9516 45.947 7.60984C47.9511 5.42831 50.011 3.92174 51.5669 2.96233C51.7907 2.82437 52.0038 2.69785 52.2046 2.58237C49.4167 14.0098 51.8902 23.8067 55.1663 30.8466C56.9069 34.587 58.8768 37.5567 60.4134 39.5937C61.1822 40.6129 61.844 41.4004 62.3164 41.9361C62.5527 42.204 62.7418 42.4091 62.8735 42.5489C62.9393 42.6187 62.9908 42.6723 63.0266 42.7092L63.0685 42.7521L63.0804 42.7641L63.084 42.7677L63.0853 42.7689C63.0857 42.7694 63.0861 42.7698 63.7932 42.0626Z" fill="#40AA3A" stroke="#40AA3A" stroke-width="2"/>
<path d="M72.4016 76.9988C72.4016 89.9076 62.4342 100.928 49.5278 100.679C37.3817 100.445 28.3448 91.2033 29.3106 79.1316C29.7417 73.7437 33.8364 65.0152 40.5174 56.179L44.9715 58.873C44.8276 47.9537 50.0001 33.4421 50.0001 33.4421C53.3977 48.7318 72.4016 52.6949 72.4016 76.9988Z" fill="#45B43F"/>
<path d="M41.3792 66.2007C39.655 76.5456 36.2068 80.3118 36.2068 86.8904C36.2068 93.787 42.3824 100.684 49.9999 100.684C57.6726 100.684 63.8142 94.4146 63.7929 86.7419C63.7353 66.1349 51.7242 55.856 51.7242 55.856C53.4484 66.2009 48.2759 71.3732 48.2759 71.3732C46.1212 68.1415 41.3792 66.2007 41.3792 66.2007Z" fill="#47BC40"/>
</g>
<defs>
<clipPath id="clip0_2_49">
<rect width="100" height="100" fill="white" transform="translate(0 0.683533)"/>
</clipPath>
</defs>
</svg>
