<svg width="100" height="101" viewBox="0 0 100 101" fill="none" xmlns="http://www.w3.org/2000/svg">
<path d="M49.383 0.200325C49.1877 0.294075 48.9533 0.505013 48.8361 0.6847L48.6252 0.9972L48.6017 3.28626L48.5783 5.56751L48.0939 5.61439C47.8283 5.63783 47.0861 5.69251 46.4377 5.73939C36.1564 6.48157 26.2424 11.0206 18.7502 18.4191C10.9221 26.1534 6.33614 36.2081 5.60957 47.2003L5.51582 48.63H3.45332C1.13301 48.63 0.836137 48.6769 0.429887 49.0675C-0.234175 49.7159 -0.0701128 50.8488 0.750199 51.255C1.01582 51.3878 1.26582 51.4034 3.28145 51.4269L5.51582 51.4503L5.57051 52.4034C6.14082 62.3956 9.86738 71.6066 16.4299 79.2159C17.2814 80.2003 19.3908 82.3253 20.4611 83.2784C27.9299 89.8956 37.1877 93.7472 47.2189 94.4113C47.8674 94.4503 48.4377 94.4894 48.4924 94.4894C48.5627 94.4894 48.5861 94.9816 48.5861 96.6925C48.5861 98.6769 48.6017 98.9347 48.7346 99.2238C49.2033 100.255 50.6096 100.294 51.1799 99.2941C51.3596 98.9894 51.3596 98.9347 51.3596 96.7394V94.4972L52.0236 94.4503C55.3361 94.2238 56.8205 94.0284 59.258 93.505C70.008 91.2159 79.4845 85.0284 86.0002 76.0597C90.3127 70.13 93.1252 63.0284 94.0549 55.7394C94.2345 54.3253 94.3674 52.7316 94.3674 51.9816V51.4503L96.6955 51.4269C98.9611 51.4034 99.0236 51.3956 99.3048 51.2238C100.203 50.6613 100.164 49.2784 99.2345 48.8175C98.9689 48.6847 98.7111 48.6691 96.6564 48.6456L94.3674 48.6222V48.0909C94.3674 47.8019 94.3283 47.1066 94.2892 46.5519C93.5314 36.9738 89.7424 28.005 83.3517 20.7003C75.7267 11.9738 64.6096 6.45032 53.1564 5.70033C52.7736 5.67689 52.2111 5.63783 51.9064 5.61439L51.3596 5.57533L51.383 3.6847C51.4142 1.45814 51.383 1.09876 51.1096 0.676888C50.7267 0.0831376 50.0002 -0.119987 49.383 0.200325ZM48.5861 16.7081V22.2785L47.9064 22.3331C39.3986 22.9894 31.7658 27.4113 26.9846 34.4425C24.7814 37.6847 23.2971 41.3253 22.6096 45.1925C22.4455 46.13 22.258 47.7316 22.258 48.2159V48.63H16.6721C12.258 48.63 11.0861 48.6066 11.0861 48.5284C11.0861 48.1691 11.2658 46.0831 11.3674 45.2706C12.6486 34.8019 18.1799 25.2784 26.6643 18.9035C32.8908 14.2394 40.2502 11.5909 48.1174 11.1847C48.3517 11.1691 48.5549 11.1535 48.5705 11.1456C48.5783 11.1378 48.5861 13.6378 48.5861 16.7081ZM53.3127 11.2941C62.4846 12.0363 71.2189 16.1691 77.7736 22.8566C83.0705 28.2706 86.6408 35.0363 88.1095 42.4191C88.4924 44.3331 88.8205 47.005 88.8205 48.1769V48.63H83.2814H77.7424L77.6877 48.0988C77.4377 45.3175 77.0705 43.5206 76.2892 41.1691C72.8205 30.7784 63.3986 23.3409 52.4611 22.3722L51.3986 22.2785L51.383 16.7316C51.3674 13.6847 51.3674 11.1925 51.3752 11.1847C51.3986 11.1613 52.2892 11.2081 53.3127 11.2941ZM48.5861 32.8878V37.9269L48.4142 37.9581C48.3127 37.9816 47.9221 38.0597 47.5314 38.13C46.1877 38.38 44.5705 39.0363 43.3596 39.8253C40.5627 41.6456 38.6799 44.4425 38.0314 47.755L37.8596 48.63H32.8205H27.7814L27.8439 47.9816C28.2033 43.7784 29.8908 39.5909 32.5861 36.1847C33.3517 35.2238 35.0939 33.4659 36.008 32.7394C39.008 30.3566 42.3517 28.8331 46.008 28.1691C46.7892 28.0285 47.8361 27.8956 48.4142 27.8566L48.5861 27.8488V32.8878ZM53.1564 28.0519C61.2814 29.1691 68.2892 34.9659 70.9689 42.7784C71.5471 44.4581 71.9455 46.3097 72.0861 47.9034L72.1486 48.63H67.1017H62.0471L61.9533 47.9972C61.4924 44.9581 59.5627 41.9113 56.9533 40.0753C55.6174 39.1456 53.8517 38.3878 52.3439 38.1144C51.9689 38.0441 51.6017 37.9816 51.5158 37.9659C51.3596 37.9347 51.3596 37.88 51.383 32.8878L51.3986 27.841L51.8517 27.8878C52.0939 27.9113 52.6877 27.9894 53.1564 28.0519ZM22.258 51.8566C22.258 52.3409 22.4455 53.9425 22.6096 54.88C24.4689 65.3253 32.1799 73.8722 42.3361 76.7394C44.2814 77.2863 45.9455 77.5909 47.9064 77.7394L48.5861 77.7941V83.3488V88.9113L48.0627 88.8878C40.8049 88.5441 33.633 86.0909 27.6486 81.88C19.1252 75.8956 13.2893 66.6534 11.6018 56.4816C11.383 55.1769 11.0861 52.3331 11.0861 51.5363C11.0861 51.4659 12.258 51.4425 16.6721 51.4425H22.258V51.8566ZM38.0314 52.3175C38.9924 57.1925 42.8127 61.0441 47.5705 61.9503C47.9377 62.0206 48.3127 62.0909 48.4142 62.1144L48.5861 62.1456V67.1847C48.5861 69.9581 48.5627 72.2238 48.5314 72.2238C47.6955 72.2003 45.7189 71.88 44.4455 71.5519C37.9533 69.8878 32.4689 65.2941 29.7189 59.2003C28.7346 57.0128 28.0393 54.3956 27.8439 52.0831L27.7814 51.4425H32.8205H37.8596L38.0314 52.3175ZM72.0861 52.1613C71.8439 54.9738 70.8986 58.0753 69.508 60.6222C66.7892 65.5988 62.3127 69.3488 56.9689 71.1222C55.3283 71.6691 53.7658 71.9894 51.8517 72.1769L51.3986 72.2238L51.383 67.1847C51.3596 62.1925 51.3596 62.1378 51.5158 62.1066C51.6017 62.0909 51.9846 62.0206 52.3674 61.9503C55.6252 61.3488 58.6642 59.1769 60.4455 56.2081C61.1642 55.005 61.7502 53.3956 61.9533 52.0753L62.0471 51.4425H67.1017H72.1486L72.0861 52.1613ZM88.8205 51.8488C88.8205 52.0753 88.7814 52.6847 88.7424 53.2003C87.9377 62.6456 83.9142 71.2081 77.172 77.8175C74.0627 80.8566 70.8049 83.1534 66.9064 85.0441C63.258 86.8175 59.3908 87.9972 55.4533 88.5441C53.6096 88.8019 51.3986 88.9659 51.3986 88.8409C51.3986 88.8097 51.3986 86.3097 51.3986 83.2863V77.7941L52.4767 77.7003C53.758 77.5831 55.3908 77.3097 56.6721 76.9972C65.8127 74.7472 73.3127 67.8331 76.2892 58.9034C77.0705 56.5519 77.4377 54.755 77.6877 51.9659L77.7424 51.4425H83.2814H88.8205V51.8488Z" fill="#40AA3A"/>
</svg>
