<svg width="35" height="35" viewBox="0 0 35 35" fill="none" xmlns="http://www.w3.org/2000/svg">
<path d="M17.3967 0.335033C17.3303 0.366917 17.2505 0.438656 17.2107 0.499767L17.1389 0.606045L17.1309 1.38454L17.1229 2.16039L16.9582 2.17633C16.8678 2.1843 16.6153 2.2029 16.3947 2.21884C12.8969 2.47126 9.52396 4.01497 6.97501 6.53115C4.31178 9.16158 2.75158 12.5811 2.50439 16.3195L2.4725 16.8058H1.77081C0.981407 16.8058 0.880406 16.8217 0.742194 16.9545C0.516271 17.1751 0.572087 17.5603 0.851169 17.6985C0.941538 17.7437 1.02659 17.749 1.71233 17.757L2.4725 17.7649L2.4911 18.0891C2.68513 21.4874 3.95296 24.62 6.18561 27.2079C6.47533 27.5427 7.19296 28.2654 7.5571 28.5895C10.0981 30.84 13.2477 32.1499 16.6605 32.3757C16.8811 32.389 17.0751 32.4023 17.0937 32.4023C17.1176 32.4023 17.1256 32.5697 17.1256 33.1516C17.1256 33.8265 17.1309 33.9142 17.1761 34.0125C17.3356 34.3632 17.814 34.3765 18.008 34.0364C18.0692 33.9327 18.0692 33.9142 18.0692 33.1675V32.405L18.2951 32.389C19.422 32.312 19.927 32.2456 20.7563 32.0675C24.4136 31.289 27.6377 29.1847 29.8544 26.1345C31.3215 24.1178 32.2784 21.7026 32.5947 19.2236C32.6558 18.7427 32.701 18.2007 32.701 17.9456V17.7649L33.4931 17.757C34.2639 17.749 34.2851 17.7463 34.3808 17.6879C34.6865 17.4966 34.6732 17.0263 34.3569 16.8695C34.2665 16.8244 34.1788 16.819 33.4798 16.8111L32.701 16.8031V16.6224C32.701 16.5241 32.6877 16.2876 32.6744 16.099C32.4166 12.8415 31.1275 9.79128 28.9533 7.30699C26.3592 4.33913 22.577 2.46063 18.6805 2.20556C18.5502 2.19759 18.3589 2.1843 18.2552 2.17633L18.0692 2.16305L18.0771 1.52005C18.0878 0.76281 18.0771 0.640587 17.9841 0.497108C17.8539 0.295177 17.6067 0.226097 17.3967 0.335033ZM17.1256 5.94927V7.8437L16.8944 7.8623C13.9999 8.08549 11.4031 9.58935 9.77646 11.9806C9.02693 13.0833 8.52192 14.3215 8.28803 15.6367C8.23221 15.9555 8.16842 16.5002 8.16842 16.6649V16.8058H6.26801C4.76628 16.8058 4.3676 16.7978 4.3676 16.7712C4.3676 16.649 4.42873 15.9396 4.46328 15.6632C4.89918 12.1029 6.78099 8.86399 9.66749 6.69588C11.7858 5.10966 14.2896 4.20893 16.9661 4.07077C17.0459 4.06546 17.115 4.06014 17.1203 4.05749C17.1229 4.05483 17.1256 4.90507 17.1256 5.94927ZM18.7336 4.10797C21.854 4.36038 24.8256 5.76593 27.0556 8.04032C28.8577 9.88162 30.0723 12.1826 30.572 14.6934C30.7023 15.3444 30.8139 16.2531 30.8139 16.6516V16.8058H28.9294H27.045L27.0264 16.6251C26.9413 15.6792 26.8164 15.0681 26.5506 14.2683C25.3705 10.7345 22.165 8.20506 18.4439 7.87559L18.0825 7.8437L18.0771 5.95724C18.0718 4.92101 18.0718 4.07343 18.0745 4.07077C18.0825 4.0628 18.3855 4.07874 18.7336 4.10797ZM17.1256 11.4519V13.1657L17.0671 13.1763C17.0326 13.1843 16.8997 13.2108 16.7668 13.2347C16.3096 13.3198 15.7594 13.543 15.3475 13.8113C14.3959 14.4304 13.7554 15.3816 13.5348 16.5082L13.4763 16.8058H11.7619H10.0476L10.0688 16.5852C10.1911 15.1558 10.7652 13.7316 11.6822 12.5732C11.9427 12.2463 12.5354 11.6485 12.8464 11.4014C13.867 10.591 15.0046 10.0729 16.2485 9.84708C16.5143 9.79925 16.8704 9.75409 17.0671 9.7408L17.1256 9.73814V11.4519ZM18.6805 9.80722C21.4447 10.1872 23.8289 12.1587 24.7405 14.8157C24.9372 15.3869 25.0728 16.0166 25.1206 16.5587L25.1419 16.8058H23.4249H21.7052L21.6733 16.5905C21.5165 15.557 20.86 14.5207 19.9722 13.8963C19.5177 13.5802 18.917 13.3224 18.4041 13.2294C18.2765 13.2055 18.1516 13.1843 18.1223 13.179C18.0692 13.1683 18.0692 13.1497 18.0771 11.4519L18.0825 9.73549L18.2366 9.75143C18.319 9.7594 18.521 9.78597 18.6805 9.80722ZM8.16842 17.9031C8.16842 18.0678 8.23221 18.6125 8.28803 18.9313C8.92061 22.4838 11.544 25.3905 14.9993 26.3656C15.6611 26.5516 16.2272 26.6552 16.8944 26.7057L17.1256 26.7243V28.6134V30.5052L16.9475 30.4973C14.4783 30.3803 12.0383 29.546 10.0024 28.1139C7.10259 26.0787 5.11713 22.9354 4.54302 19.476C4.4686 19.0323 4.3676 18.0652 4.3676 17.7942C4.3676 17.7702 4.76628 17.7623 6.26801 17.7623H8.16842V17.9031ZM13.5348 18.0599C13.8617 19.7178 15.1614 21.0277 16.7801 21.3359C16.905 21.3598 17.0326 21.3838 17.0671 21.3917L17.1256 21.4024V23.1161C17.1256 24.0594 17.1176 24.8299 17.107 24.8299C16.8226 24.8219 16.1501 24.713 15.7169 24.6014C13.5082 24.0354 11.6423 22.4731 10.7067 20.4007C10.3718 19.6567 10.1353 18.7666 10.0688 17.9801L10.0476 17.7623H11.7619H13.4763L13.5348 18.0599ZM25.1206 18.0067C25.0382 18.9632 24.7166 20.0181 24.2435 20.8842C23.3186 22.5767 21.7956 23.8521 19.9776 24.4552C19.4194 24.6412 18.8878 24.7502 18.2366 24.8139L18.0825 24.8299L18.0771 23.1161C18.0692 21.4183 18.0692 21.3997 18.1223 21.3891C18.1516 21.3838 18.2818 21.3598 18.412 21.3359C19.5204 21.1313 20.5543 20.3927 21.1603 19.383C21.4049 18.9739 21.6042 18.4265 21.6733 17.9775L21.7052 17.7623H23.4249H25.1419L25.1206 18.0067ZM30.8139 17.9004C30.8139 17.9775 30.8006 18.1847 30.7873 18.3601C30.5135 21.5724 29.1447 24.4845 26.8509 26.7323C25.7931 27.7659 24.6847 28.547 23.3584 29.19C22.1172 29.7931 20.8015 30.1944 19.4619 30.3803C18.8346 30.468 18.0825 30.5238 18.0825 30.4813C18.0825 30.4707 18.0825 29.6204 18.0825 28.5922V26.7243L18.4492 26.6924C18.8851 26.6526 19.4407 26.5596 19.8766 26.4533C22.9863 25.6881 25.5379 23.3366 26.5506 20.2997C26.8164 19.4999 26.9413 18.8888 27.0264 17.9403L27.045 17.7623H28.9294H30.8139V17.9004Z" fill="#40AA3A"/>
</svg>
