<svg width="12" height="24" viewBox="0 0 12 24" fill="none" xmlns="http://www.w3.org/2000/svg">
<path d="M6.00001 0.692322C6.41934 0.692322 6.82926 0.815704 7.17792 1.04687C7.52659 1.27803 7.79834 1.60659 7.95881 1.99101C8.11928 2.37542 8.16127 2.79841 8.07946 3.2065C7.99765 3.61459 7.79572 3.98944 7.49921 4.28366C7.20269 4.57787 6.82491 4.77824 6.41364 4.85941C6.00236 4.94059 5.57606 4.89892 5.18864 4.7397C4.80123 4.58047 4.4701 4.31082 4.23713 3.96486C4.00416 3.6189 3.87981 3.21216 3.87981 2.79608C3.87981 2.23813 4.10319 1.70303 4.5008 1.3085C4.89842 0.913967 5.4377 0.692322 6.00001 0.692322ZM11.6539 23.3077H0.346161V20.1521H4.40986V12.0877H1.75962V8.93204H7.59015V20.1521H11.6539V23.3077Z" fill="white"/>
</svg>
