<svg width="99" height="96" viewBox="0 0 99 96" fill="none" xmlns="http://www.w3.org/2000/svg">
<path d="M96.82 83.84H86.357C93.302 74.627 97.127 63.107 97.127 51.402C97.127 23.059 75.721 0 49.407 0C23.094 0 1.687 23.06 1.687 51.402C1.687 63.109 5.51 74.629 12.454 83.84H2C0.896 83.84 0 84.736 0 85.84V93.554C0 94.658 0.896 95.554 2 95.554H30.551C31.655 95.554 32.551 94.658 32.551 93.554V84.961C32.551 84.485 32.382 84.026 32.074 83.665L31.963 83.534C31.851 83.401 31.721 83.284 31.578 83.186C21.752 76.376 15.647 64.198 15.647 51.401C15.647 30.755 30.792 13.959 49.407 13.959C68.021 13.959 83.166 30.756 83.166 51.401C83.166 64.252 77.023 76.456 67.137 83.252C66.594 83.625 66.27 84.241 66.27 84.899V93.552C66.27 94.656 67.166 95.552 68.27 95.552H96.82C97.924 95.552 98.82 94.656 98.82 93.552V85.838C98.82 84.735 97.926 83.84 96.82 83.84Z" fill="#CF2323"/>
</svg>
