<svg width="24" height="28" viewBox="0 0 24 28" fill="none" xmlns="http://www.w3.org/2000/svg">
<path d="M14.2472 4.9638L16.6551 2.54048L14.3983 0.269226L8.45704 6.24862L14.3983 12.228L16.6551 9.95675L14.2472 7.53344H20.7545V25.1611H13.6962L11.1487 27.7308H21.1183C22.3276 27.7308 23.3077 26.7444 23.3077 25.5273V7.16726C23.3077 5.95017 22.3276 4.9638 21.1183 4.9638H14.2472Z" fill="white"/>
<path d="M3.24557 7.52701H4.36405L6.91155 4.95738H2.88173C1.67241 4.95738 0.692322 5.94375 0.692322 7.16084V25.5145C0.692322 26.7315 1.6724 27.7179 2.88173 27.7179H7.19097L9.73848 25.1483H3.24557V7.52701Z" fill="white"/>
</svg>
