<svg width="35" height="35" viewBox="0 0 35 35" fill="none" xmlns="http://www.w3.org/2000/svg">
<g opacity="0.263374">
<path opacity="0.263374" d="M17.0853 14.3503C12.1511 14.3503 8.15118 14.997 8.15118 15.7948C8.15118 16.5926 12.1511 17.2393 17.0853 17.2393C22.0194 17.2393 26.0194 16.5926 26.0194 15.7948C26.0194 14.997 22.0194 14.3503 17.0853 14.3503ZM17.2622 14.6068C21.2681 14.6068 24.5156 14.9864 24.5156 15.4549C24.5156 15.9234 21.2681 16.3034 17.2622 16.3034C13.2562 16.3034 10.0088 15.9234 10.0088 15.4549C10.0088 14.9864 13.2562 14.6068 17.2622 14.6068Z" fill="white"/>
<path opacity="0.263374" d="M17.0853 11.1265C12.1511 11.1265 8.15118 11.7733 8.15118 12.571C8.15118 13.3688 12.1511 14.0156 17.0853 14.0156C22.0194 14.0156 26.0194 13.3688 26.0194 12.571C26.0194 11.7733 22.0194 11.1265 17.0853 11.1265ZM17.2622 11.383C21.2681 11.383 24.5156 11.7627 24.5156 12.2312C24.5156 12.6997 21.2681 13.0797 17.2622 13.0797C13.2562 13.0797 10.0088 12.6997 10.0088 12.2312C10.0088 11.7627 13.2562 11.383 17.2622 11.383Z" fill="white"/>
<path opacity="0.263374" d="M17.0853 7.94934C12.1511 7.94934 8.15118 8.59607 8.15118 9.39386C8.15118 10.1916 12.1511 10.8384 17.0853 10.8384C22.0194 10.8384 26.0194 10.1916 26.0194 9.39386C26.0194 8.59607 22.0194 7.94934 17.0853 7.94934ZM17.2622 8.20584C21.2681 8.20584 24.5156 8.5855 24.5156 9.05399C24.5156 9.52249 21.2681 9.90248 17.2622 9.90248C13.2562 9.90248 10.0088 9.52249 10.0088 9.05399C10.0088 8.5855 13.2562 8.20584 17.2622 8.20584Z" fill="white"/>
<path opacity="0.263374" d="M17.0853 23.793C12.1511 23.793 8.15118 24.4398 8.15118 25.2375C8.15118 26.0353 12.1511 26.6821 17.0853 26.6821C22.0194 26.6821 26.0194 26.0353 26.0194 25.2375C26.0194 24.4398 22.0194 23.793 17.0853 23.793ZM17.2622 24.0495C21.2681 24.0495 24.5156 24.4292 24.5156 24.8977C24.5156 25.3662 21.2681 25.7462 17.2622 25.7462C13.2562 25.7462 10.0088 25.3662 10.0088 24.8977C10.0088 24.4292 13.2562 24.0495 17.2622 24.0495Z" fill="white"/>
<path opacity="0.263374" d="M17.0853 20.6608C12.1511 20.6608 8.15118 21.3076 8.15118 22.1053C8.15118 22.9031 12.1511 23.5499 17.0853 23.5499C22.0194 23.5499 26.0194 22.9031 26.0194 22.1053C26.0194 21.3076 22.0194 20.6608 17.0853 20.6608ZM17.2622 20.9173C21.2681 20.9173 24.5156 21.297 24.5156 21.7655C24.5156 22.234 21.2681 22.614 17.2622 22.614C13.2562 22.614 10.0088 22.234 10.0088 21.7655C10.0088 21.297 13.2562 20.9173 17.2622 20.9173Z" fill="white"/>
<path opacity="0.263374" d="M17.0853 17.4837C12.1511 17.4837 8.15118 18.1304 8.15118 18.9282C8.15118 19.726 12.1511 20.3727 17.0853 20.3727C22.0194 20.3727 26.0194 19.726 26.0194 18.9282C26.0194 18.1304 22.0194 17.4837 17.0853 17.4837ZM17.2622 17.7402C21.2681 17.7402 24.5156 18.1198 24.5156 18.5883C24.5156 19.0568 21.2681 19.4368 17.2622 19.4368C13.2562 19.4368 10.0088 19.0568 10.0088 18.5883C10.0088 18.1198 13.2562 17.7402 17.2622 17.7402Z" fill="white"/>
</g>
<path fill-rule="evenodd" clip-rule="evenodd" d="M5.35323 30.2238C2.02847 30.7467 0.368408 31.3746 0.368408 32.1031C0.368408 32.8338 2.02847 33.4616 5.35323 33.9845C8.65102 34.4951 12.6584 34.7493 17.3698 34.7493C22.0561 34.7493 26.0635 34.4951 29.3836 33.9845C32.7084 33.4616 34.3684 32.8338 34.3684 32.1031C34.3684 31.3746 32.7084 30.7467 29.3836 30.2238C26.0635 29.6993 22.0561 29.4389 17.3698 29.4389C12.6584 29.4389 8.65102 29.6993 5.35323 30.2238Z" fill="#40AA3A"/>
<path fill-rule="evenodd" clip-rule="evenodd" d="M5.35323 30.1411C2.02847 30.6501 0.368408 31.2697 0.368408 32.0003C0.368408 32.731 2.02847 33.3588 5.35323 33.8817C8.65102 34.4062 12.6584 34.6666 17.3698 34.6666C22.0561 34.6666 26.0635 34.4041 29.3836 33.8817C32.7084 33.3588 34.3684 32.731 34.3684 32.0003C34.3684 31.2697 32.7084 30.6501 29.3836 30.1411C26.0635 29.6167 22.0561 29.3562 17.3698 29.3562C12.6798 29.3562 8.67706 29.6167 5.35323 30.1411Z" fill="#40AA3A"/>
<path fill-rule="evenodd" clip-rule="evenodd" d="M1.2622 31.96C1.28452 32.5796 2.79856 33.1025 5.79969 33.5303C8.82592 33.9582 12.4474 34.1582 16.6621 34.1297C20.8797 34.1158 24.4872 33.8755 27.4874 33.4074C30.4885 32.9366 31.9886 32.3941 31.9886 31.774C31.9635 31.1405 30.4522 30.6093 27.4511 30.1814C24.4509 29.7536 20.8285 29.5541 16.5896 29.582C12.346 29.6105 8.72455 29.8507 5.72715 30.307C2.74834 30.7752 1.2622 31.326 1.2622 31.96Z" fill="#33BB2C"/>
<path fill-rule="evenodd" clip-rule="evenodd" d="M32.4358 31.6913C32.4358 31.5947 32.3847 31.512 32.2861 31.4433L30.7609 28.8798L9.14946 28.777L3.64198 28.8798L2.07958 31.4433C1.98193 31.512 1.93078 31.5947 1.93078 31.6913C1.93078 32.2003 3.41971 32.6684 6.39573 33.0963C9.4945 33.5365 13.0908 33.7582 17.181 33.7582C21.2758 33.7582 24.8721 33.5381 27.9709 33.0963C30.946 32.6684 32.4358 32.2003 32.4358 31.6913Z" fill="#40AA3A"/>
<path fill-rule="evenodd" clip-rule="evenodd" d="M3.56948 28.9826C3.56948 29.4105 4.89474 29.7758 7.54711 30.0786C10.2023 30.3814 13.3996 30.5328 17.1447 30.5328C20.9159 30.5328 24.1272 30.3814 26.7796 30.0786C29.4347 29.7737 30.7609 29.4105 30.7609 28.9826C30.7609 28.5568 29.4347 28.1977 26.7796 27.9089C24.1272 27.604 20.9159 27.4526 17.1447 27.4526C13.3996 27.4526 10.2023 27.604 7.54711 27.9089C4.89474 28.1977 3.56948 28.5568 3.56948 28.9826Z" fill="#40AA3A"/>
<path fill-rule="evenodd" clip-rule="evenodd" d="M4.60827 28.9221C4.60827 29.2792 5.82472 29.5903 8.25575 29.8507C10.711 30.1132 13.6498 30.2439 17.0722 30.2439C20.5197 30.2439 23.4585 30.1132 25.8895 29.8507C28.3448 29.5903 29.5724 29.2792 29.5724 28.9221C29.5724 28.563 28.3448 28.254 25.8895 27.9915C23.4585 27.729 20.5197 27.5978 17.0722 27.5978C13.6498 27.5978 10.711 27.729 8.25575 27.9915C5.82472 28.254 4.60827 28.563 4.60827 28.9221Z" fill="#40AA3A"/>
<path fill-rule="evenodd" clip-rule="evenodd" d="M24.8099 28.5284C22.6271 28.254 19.9859 28.1145 16.8872 28.1145C13.9084 28.1145 11.3285 28.2457 9.14952 28.5082C6.99098 28.7707 5.8508 29.0854 5.72711 29.459C6.71849 29.6931 8.21952 29.8786 10.2283 30.016C12.3097 30.1674 14.591 30.2439 17.0722 30.2439C19.4047 30.2439 21.5734 30.1814 23.5822 30.0584C25.4897 29.921 26.9898 29.7479 28.0835 29.5417V29.5195C28.0835 29.134 26.9935 28.8048 24.8099 28.5284Z" fill="url(#paint0_radial_6_29)"/>
<path fill-rule="evenodd" clip-rule="evenodd" d="M34.3684 3.47812C34.3684 2.74747 32.7084 2.11397 29.3836 1.57709C26.0123 1.02575 22.0059 0.749298 17.3698 0.749298C12.7058 0.749298 8.70217 1.02575 5.35323 1.57709C2.02847 2.11397 0.368408 2.74747 0.368408 3.47812V5.4825H2.37721C3.84197 5.8964 5.88705 6.2333 8.5171 6.4958C11.2197 6.74434 14.1697 6.86732 17.3698 6.86732C20.5672 6.86732 23.506 6.74434 26.1872 6.4958C28.8135 6.24777 30.8586 5.91035 32.3233 5.4825H34.3684L34.3321 3.66414L34.3684 3.47812Z" fill="#40AA3A"/>
<path fill-rule="evenodd" clip-rule="evenodd" d="M5.35323 7.36391C8.65102 7.88632 12.6584 8.14882 17.3698 8.14882C22.0561 8.14882 26.0635 7.88632 29.3836 7.36391C32.7084 6.83892 34.3684 6.21316 34.3684 5.48251C34.3684 4.75186 32.7084 4.12404 29.3836 3.60163C26.0635 3.09266 22.0561 2.83636 17.3698 2.83636C12.6584 2.83636 8.65102 3.09059 5.35323 3.60163C2.02847 4.12611 0.368408 4.75186 0.368408 5.48251C0.368408 6.21316 2.02847 6.83892 5.35323 7.36391Z" fill="#33BB2C"/>
<path fill-rule="evenodd" clip-rule="evenodd" d="M5.35323 7.46673C8.65102 7.97726 12.6584 8.23149 17.3698 8.23149C22.0561 8.23149 26.0635 7.97726 29.3836 7.46673C32.7084 6.94381 34.3684 6.31599 34.3684 5.58534C34.3684 4.85469 32.7084 4.22893 29.3836 3.70446C26.0635 3.18153 22.0561 2.91904 17.3698 2.91904C12.6584 2.91904 8.65102 3.18153 5.35323 3.70446C2.02847 4.22893 0.368408 4.85469 0.368408 5.58534C0.368408 6.31599 2.02847 6.94381 5.35323 7.46673Z" fill="#40AA3A"/>
<path fill-rule="evenodd" clip-rule="evenodd" d="M1.2622 5.64783C1.2622 6.2679 2.74834 6.81253 5.72715 7.2812C8.74966 7.74935 12.3711 7.98963 16.5896 8.00358C20.8285 8.032 24.4509 7.83823 27.4511 7.4264C30.4522 6.99855 31.9635 6.46736 31.9886 5.83385C31.9886 5.19983 30.4885 4.6552 27.4874 4.201C24.5123 3.73233 20.9048 3.4843 16.6621 3.45588C12.4222 3.444 8.80081 3.64397 5.79969 4.05528C2.79856 4.48365 1.28452 5.01433 1.2622 5.64783Z" fill="#33BB2C"/>
<path fill-rule="evenodd" clip-rule="evenodd" d="M32.4358 5.89637C32.4358 5.38584 30.946 4.91717 27.9709 4.48933C24.8721 4.04959 21.2758 3.82947 17.181 3.82947C13.0908 3.82947 9.4945 4.04959 6.39573 4.48933C3.41971 4.91717 1.93078 5.38584 1.93078 5.89637C1.93078 5.99145 1.98193 6.07412 2.07958 6.1444L3.64198 8.72802H30.7609L32.2861 6.1444C32.3847 6.07412 32.4358 5.99145 32.4358 5.89637Z" fill="#40AA3A"/>
<path fill-rule="evenodd" clip-rule="evenodd" d="M26.7796 7.50703C24.1272 7.20423 20.9159 7.05283 17.1447 7.05283C13.3996 7.05283 10.2023 7.20423 7.54711 7.50703C4.89474 7.8119 3.56948 8.17722 3.56948 8.603C3.56948 9.03085 4.89474 9.39617 7.54711 9.69898C10.2023 10.0018 13.3996 10.1532 17.1447 10.1532C20.8908 10.1532 24.1021 10.0018 26.7796 9.69898C29.4347 9.39617 30.7609 9.03085 30.7609 8.603C30.7609 8.17722 29.4347 7.8119 26.7796 7.50703Z" fill="#40AA3A"/>
<path fill-rule="evenodd" clip-rule="evenodd" d="M29.5696 8.66549C29.5696 8.30843 28.341 7.99737 25.8896 7.73539C23.4585 7.48684 20.5197 7.36386 17.0722 7.36386C13.6247 7.36386 10.6859 7.48684 8.25576 7.73539C5.82473 7.99737 4.60829 8.30843 4.60829 8.66549C4.60829 9.03702 5.82473 9.35377 8.25576 9.61627C10.6859 9.86481 13.6247 9.98779 17.0722 9.98779C20.5197 9.98779 23.4585 9.86481 25.8896 9.61627C28.341 9.35377 29.5696 9.03702 29.5696 8.66549Z" fill="#40AA3A"/>
<path fill-rule="evenodd" clip-rule="evenodd" d="M5.72711 8.12861C5.8508 8.50014 6.99098 8.81689 9.14952 9.07939C11.3285 9.34189 13.9084 9.47107 16.8872 9.47107C19.9859 9.47107 22.6271 9.33362 24.8099 9.05717C26.9935 8.78279 28.0835 8.45157 28.0835 8.06609V8.04594C25.751 7.58967 22.0822 7.36386 17.0722 7.36386C14.5659 7.36386 12.2846 7.43259 10.2283 7.56952C8.19348 7.70697 6.69338 7.89454 5.72711 8.12861Z" fill="url(#paint1_radial_6_29)"/>
<g opacity="0.584362">
<path opacity="0.584362" d="M16.401 16.127C12.7543 16.1894 9.02721 16.2446 5.51344 16.9538C4.94019 17.0982 3.94681 17.3317 4.1336 17.8784C4.62744 18.4816 5.76967 18.5529 6.63622 18.7422C11.7174 19.4412 16.9768 19.4391 22.143 19.2326C24.5558 19.0672 27.0733 18.995 29.311 18.3169C29.8826 18.1949 30.3057 17.6444 29.723 17.3501C28.2567 16.6674 26.3832 16.6158 24.6876 16.4123C21.9391 16.185 19.1671 16.1162 16.401 16.127ZM17.3082 16.7213C20.5226 16.7593 23.7928 16.7432 26.9293 17.2682C27.1213 17.3041 27.557 17.4084 27.1486 17.4742C24.6407 17.9887 21.9807 17.9726 19.3837 18.0606C15.5661 18.0849 11.6794 18.1129 7.93694 17.582C7.7752 17.5423 6.97683 17.4254 7.47168 17.3236C10.0165 16.8024 12.7182 16.824 15.3538 16.7353C16.0051 16.7238 16.6567 16.7202 17.3082 16.7213Z" fill="url(#paint2_linear_6_29)"/>
<path opacity="0.584362" d="M16.401 12.9043C12.7531 12.9632 9.02898 13.0226 5.51347 13.7284C4.93273 13.8665 3.86097 14.1442 4.16388 14.7032C4.80603 15.3152 6.03669 15.3858 7.00295 15.5723C12.2484 16.2379 17.6394 16.2266 22.9474 15.9661C25.1302 15.7904 27.4145 15.7153 29.4169 15.0545C29.9948 14.9114 30.2529 14.3392 29.6626 14.093C28.0805 13.413 26.1289 13.3593 24.3311 13.159C21.699 12.9571 19.0479 12.8905 16.401 12.9043ZM17.8375 13.4986C20.9049 13.5516 24.0322 13.5351 27.0163 14.0639C27.2468 14.1062 27.4918 14.2022 27.1373 14.2541C24.5122 14.7813 21.7322 14.7592 19.0171 14.8436C15.3212 14.8536 11.5572 14.8802 7.93723 14.3559C7.76539 14.3097 7.25812 14.2576 7.31294 14.1511C9.24706 13.654 11.3801 13.6775 13.4257 13.5586C14.8953 13.5115 16.3665 13.4911 17.8375 13.4986Z" fill="url(#paint3_linear_6_29)"/>
<path opacity="0.584362" d="M16.4009 9.72642C12.7553 9.78744 9.01725 9.84281 5.51344 10.5532C4.92704 10.6905 3.86216 10.9676 4.16384 11.5253C4.80212 12.1407 6.03963 12.2054 7.00669 12.3971C12.3152 13.0639 17.7685 13.0541 23.1376 12.7775C25.2823 12.594 27.5491 12.5287 29.5 11.8423C30.048 11.6831 30.2064 11.1308 29.6512 10.9099C28.0641 10.2369 26.1266 10.1775 24.327 9.98307C21.6972 9.77589 19.046 9.71548 16.4009 9.72642ZM17.8375 10.3208C20.9056 10.3749 24.0296 10.3569 27.0163 10.8861C27.226 10.9237 27.499 11.0201 27.1486 11.0736C24.5603 11.6001 21.8198 11.5777 19.1418 11.6638C15.4476 11.6842 11.6858 11.6961 8.0652 11.2031C7.8215 11.1465 7.42456 11.1072 7.28266 10.9891C9.00486 10.507 10.9282 10.5286 12.7636 10.406C14.453 10.3393 16.1454 10.3124 17.8375 10.3208Z" fill="url(#paint4_linear_6_29)"/>
<path opacity="0.584362" d="M16.401 25.5707C12.7531 25.6296 9.02898 25.689 5.51347 26.3949C4.93273 26.533 3.86097 26.8107 4.16388 27.3696C4.80603 27.9816 6.03669 28.0522 7.00295 28.2387C12.2484 28.9042 17.6394 28.8939 22.9474 28.6325C25.1302 28.4569 27.4145 28.3818 29.4169 27.721C29.9948 27.5779 30.2529 27.0057 29.6626 26.7594C28.0805 26.0794 26.1289 26.0257 24.3311 25.8255C21.699 25.6235 19.0479 25.557 16.401 25.5707ZM17.8375 26.1651C20.9049 26.2181 24.0322 26.2016 27.0163 26.7304C27.3205 26.7784 27.4454 26.8831 27.0844 26.9364C24.2146 27.4743 21.1951 27.4509 18.2383 27.5182C14.7421 27.5014 11.1752 27.5294 7.7628 26.9892C7.57885 26.9508 7.00815 26.8432 7.47549 26.7621C10.1384 26.2325 12.9777 26.2539 15.7394 26.173C16.4387 26.1658 17.1382 26.1601 17.8375 26.1651Z" fill="url(#paint5_linear_6_29)"/>
<path opacity="0.584362" d="M16.4011 22.4378C12.7555 22.5005 9.01679 22.5535 5.51358 23.2646C4.93526 23.4056 3.91186 23.6571 4.14509 24.2076C4.70365 24.8211 5.903 24.8942 6.81782 25.0767C11.8511 25.7527 17.0366 25.7472 22.1432 25.5434C24.5559 25.378 27.0734 25.3058 29.3111 24.6277C29.8819 24.5052 30.3062 23.9552 29.7232 23.6608C28.3201 23.0052 26.561 22.9395 24.9315 22.7468C22.1125 22.495 19.2464 22.4281 16.4011 22.4378ZM17.8376 23.0321C20.9031 23.088 24.0256 23.0664 27.0089 23.5974C27.216 23.6326 27.5057 23.7307 27.1487 23.785C24.6004 24.3066 21.9004 24.2851 19.2629 24.3733C15.4848 24.3937 11.6407 24.4193 7.93708 23.8928C7.77534 23.8531 6.97697 23.7362 7.47182 23.6344C10.0048 23.1116 12.7192 23.1357 15.3539 23.0461C16.1816 23.0331 17.0097 23.0274 17.8376 23.0321Z" fill="url(#paint6_linear_6_29)"/>
<path opacity="0.584362" d="M15.7508 19.2652C12.2742 19.3487 8.71588 19.4097 5.3774 20.1185C4.82978 20.2503 3.86177 20.5484 4.1639 21.0589C4.79768 21.675 6.03783 21.7369 7.00675 21.9306C12.3151 22.5978 17.7687 22.5892 23.1377 22.311C25.279 22.1294 27.5506 22.0621 29.5 21.3759C30.0487 21.2153 30.2099 20.6674 29.6513 20.4434C28.0287 19.7594 26.0275 19.7035 24.1886 19.5056C21.3875 19.2966 18.5664 19.2383 15.7508 19.2652ZM17.3083 19.8543C20.5227 19.8911 23.793 19.8785 26.9294 20.4011C27.1271 20.439 27.5673 20.5422 27.1373 20.6125C24.5133 21.1342 21.7349 21.1192 19.0209 21.1992C15.3235 21.2142 11.5597 21.2332 7.93726 20.7142C7.74497 20.6665 7.36758 20.6232 7.28272 20.5226C9.00483 20.0429 10.9283 20.0637 12.7636 19.9396C14.2769 19.8818 15.7926 19.8506 17.3083 19.8543Z" fill="url(#paint7_linear_6_29)"/>
</g>
<defs>
<radialGradient id="paint0_radial_6_29" cx="0" cy="0" r="1" gradientUnits="userSpaceOnUse" gradientTransform="translate(17.4814 30.9053) rotate(-83.682) scale(3.1973 12.2756)">
<stop stop-color="white"/>
<stop offset="0.1176" stop-color="#F5FFF4"/>
<stop offset="0.3216" stop-color="#E7FFE5"/>
<stop offset="0.5804" stop-color="#AAEEA7"/>
<stop offset="0.8824" stop-color="#65D05F"/>
<stop offset="1" stop-color="#40AA3A"/>
</radialGradient>
<radialGradient id="paint1_radial_6_29" cx="0" cy="0" r="1" gradientUnits="userSpaceOnUse" gradientTransform="translate(17.4809 6.68116) rotate(83.682) scale(3.19731 12.2756)">
<stop stop-color="white"/>
<stop offset="0.1176" stop-color="#F5FFF4"/>
<stop offset="0.3216" stop-color="#E7FFE6"/>
<stop offset="0.5804" stop-color="#AAEEA7"/>
<stop offset="0.8824" stop-color="#65D05F"/>
<stop offset="1" stop-color="#40AA3A"/>
</radialGradient>
<linearGradient id="paint2_linear_6_29" x1="4.1067" y1="19.2619" x2="30.0023" y2="19.2619" gradientUnits="userSpaceOnUse">
<stop stop-color="#40AA3A"/>
<stop offset="0.500019" stop-color="#40AA3A"/>
<stop offset="1" stop-color="#40AA3A"/>
</linearGradient>
<linearGradient id="paint3_linear_6_29" x1="4.10673" y1="19.2619" x2="30.0023" y2="19.2619" gradientUnits="userSpaceOnUse">
<stop stop-color="#40AA3A"/>
<stop offset="0.500019" stop-color="#40AA3A"/>
<stop offset="1" stop-color="#40AA3A"/>
</linearGradient>
<linearGradient id="paint4_linear_6_29" x1="4.10669" y1="19.2619" x2="30.0022" y2="19.2619" gradientUnits="userSpaceOnUse">
<stop stop-color="#40AA3A"/>
<stop offset="0.500019" stop-color="#40AA3A"/>
<stop offset="1" stop-color="#40AA3A"/>
</linearGradient>
<linearGradient id="paint5_linear_6_29" x1="4.10673" y1="19.2619" x2="30.0023" y2="19.2619" gradientUnits="userSpaceOnUse">
<stop stop-color="#40AA3A" stop-opacity="0.5"/>
<stop offset="0.500019" stop-color="#40AA3A"/>
<stop offset="1" stop-color="#40AA3A"/>
</linearGradient>
<linearGradient id="paint6_linear_6_29" x1="4.10685" y1="19.2619" x2="30.0024" y2="19.2619" gradientUnits="userSpaceOnUse">
<stop stop-color="#40AA3A" stop-opacity="0.5"/>
<stop offset="0.500019" stop-color="#40AA3A"/>
<stop offset="1" stop-color="#40AA3A"/>
</linearGradient>
<linearGradient id="paint7_linear_6_29" x1="4.10675" y1="19.2619" x2="30.0023" y2="19.2619" gradientUnits="userSpaceOnUse">
<stop stop-color="#40AA3A"/>
<stop offset="0.500019" stop-color="#40AA3A"/>
<stop offset="1" stop-color="#40AA3A"/>
</linearGradient>
</defs>
</svg>
