<svg width="70" height="101" viewBox="0 0 70 101" fill="none" xmlns="http://www.w3.org/2000/svg">
<g opacity="0.263374">
<path opacity="0.263374" d="M34.3397 40.7953C24.3418 40.7953 16.2369 42.6975 16.2369 45.0439C16.2369 47.3904 24.3418 49.2925 34.3397 49.2925C44.3375 49.2925 52.4424 47.3904 52.4424 45.0439C52.4424 42.6975 44.3375 40.7953 34.3397 40.7953ZM34.6981 41.5498C42.8152 41.5498 49.3954 42.6664 49.3954 44.0443C49.3954 45.4222 42.8152 46.5399 34.6981 46.5399C26.5811 46.5399 20.0009 45.4222 20.0009 44.0443C20.0009 42.6664 26.5811 41.5498 34.6981 41.5498V41.5498Z" fill="white"/>
<path opacity="0.263374" d="M34.3397 31.3138C24.3418 31.3138 16.2369 33.216 16.2369 35.5624C16.2369 37.9088 24.3418 39.811 34.3397 39.811C44.3375 39.811 52.4424 37.9088 52.4424 35.5624C52.4424 33.216 44.3375 31.3138 34.3397 31.3138ZM34.6981 32.0682C42.8152 32.0682 49.3954 33.1849 49.3954 34.5628C49.3954 35.9407 42.8152 37.0583 34.6981 37.0583C26.5811 37.0583 20.0009 35.9407 20.0009 34.5628C20.0009 33.1849 26.5811 32.0682 34.6981 32.0682V32.0682Z" fill="white"/>
<path opacity="0.263374" d="M34.3397 21.9691C24.3418 21.9691 16.2369 23.8713 16.2369 26.2177C16.2369 28.5642 24.3418 30.4663 34.3397 30.4663C44.3375 30.4663 52.4424 28.5642 52.4424 26.2177C52.4424 23.8713 44.3375 21.9691 34.3397 21.9691ZM34.6981 22.7236C42.8152 22.7236 49.3954 23.8402 49.3954 25.2181C49.3954 26.596 42.8152 27.7137 34.6981 27.7137C26.5811 27.7137 20.0009 26.596 20.0009 25.2181C20.0009 23.8402 26.5811 22.7236 34.6981 22.7236V22.7236Z" fill="white"/>
<path opacity="0.263374" d="M34.3397 68.5682C24.3418 68.5682 16.2369 70.4703 16.2369 72.8168C16.2369 75.1632 24.3418 77.0653 34.3397 77.0653C44.3375 77.0653 52.4424 75.1632 52.4424 72.8168C52.4424 70.4703 44.3375 68.5682 34.3397 68.5682ZM34.6981 69.3226C42.8152 69.3226 49.3954 70.4392 49.3954 71.8172C49.3954 73.1951 42.8152 74.3127 34.6981 74.3127C26.5811 74.3127 20.0009 73.1951 20.0009 71.8172C20.0009 70.4392 26.5811 69.3226 34.6981 69.3226V69.3226Z" fill="white"/>
<path opacity="0.263374" d="M34.3397 59.3559C24.3418 59.3559 16.2369 61.258 16.2369 63.6044C16.2369 65.9509 24.3418 67.853 34.3397 67.853C44.3375 67.853 52.4424 65.9509 52.4424 63.6044C52.4424 61.258 44.3375 59.3559 34.3397 59.3559ZM34.6981 60.1103C42.8152 60.1103 49.3954 61.2269 49.3954 62.6048C49.3954 63.9828 42.8152 65.1004 34.6981 65.1004C26.5811 65.1004 20.0009 63.9828 20.0009 62.6048C20.0009 61.2269 26.5811 60.1103 34.6981 60.1103V60.1103Z" fill="white"/>
<path opacity="0.263374" d="M34.3397 50.0112C24.3418 50.0112 16.2369 51.9134 16.2369 54.2598C16.2369 56.6062 24.3418 58.5084 34.3397 58.5084C44.3375 58.5084 52.4424 56.6062 52.4424 54.2598C52.4424 51.9134 44.3375 50.0112 34.3397 50.0112ZM34.6981 50.7656C42.8152 50.7656 49.3954 51.8823 49.3954 53.2602C49.3954 54.6381 42.8152 55.7557 34.6981 55.7557C26.5811 55.7557 20.0009 54.6381 20.0009 53.2602C20.0009 51.8823 26.5811 50.7656 34.6981 50.7656V50.7656Z" fill="white"/>
</g>
<path fill-rule="evenodd" clip-rule="evenodd" d="M10.5675 87.4823C3.83073 89.0203 0.467036 90.8668 0.467036 93.0097C0.467036 95.1587 3.83073 97.0052 10.5675 98.5432C17.2497 100.045 25.3697 100.793 34.9162 100.793C44.4118 100.793 52.5317 100.045 59.2591 98.5432C65.9959 97.0052 69.3596 95.1587 69.3596 93.0097C69.3596 90.8668 65.9959 89.0203 59.2591 87.4823C52.5317 85.9397 44.4118 85.1737 34.9162 85.1737C25.3697 85.1737 17.2497 85.9397 10.5675 87.4823V87.4823Z" fill="url(#paint0_linear_2_84)"/>
<path fill-rule="evenodd" clip-rule="evenodd" d="M10.5675 87.2391C3.83073 88.7361 0.467036 90.5583 0.467036 92.7073C0.467036 94.8562 3.83073 96.7028 10.5675 98.2408C17.2497 99.7834 25.3697 100.549 34.9162 100.549C44.4118 100.549 52.5317 99.7773 59.2591 98.2408C65.9959 96.7028 69.3596 94.8562 69.3596 92.7073C69.3596 90.5583 65.9959 88.7361 59.2591 87.2391C52.5317 85.6965 44.4118 84.9305 34.9162 84.9305C25.413 84.9305 17.3025 85.6965 10.5675 87.2391V87.2391Z" fill="url(#paint1_linear_2_84)"/>
<path fill-rule="evenodd" clip-rule="evenodd" d="M2.27806 92.5887C2.32329 94.411 5.39113 95.949 11.4722 97.2074C17.6041 98.4657 24.942 99.0539 33.4822 98.9703C42.0281 98.9293 49.3377 98.2226 55.4169 96.8456C61.4979 95.4611 64.5375 93.8654 64.5375 92.0416C64.4866 90.1784 61.4244 88.616 55.3434 87.3577C49.2642 86.0993 41.9244 85.5126 33.3352 85.5947C24.7366 85.6783 17.3987 86.385 11.3252 87.727C5.28937 89.1039 2.27806 90.724 2.27806 92.5887V92.5887Z" fill="url(#paint2_linear_2_84)"/>
<path fill-rule="evenodd" clip-rule="evenodd" d="M65.4437 91.7984C65.4437 91.5142 65.3401 91.271 65.1403 91.0689L62.0499 83.5293L18.2597 83.2268L7.10014 83.5293L3.93431 91.0689C3.73645 91.271 3.6328 91.5142 3.6328 91.7984C3.6328 93.2954 6.64976 94.6723 12.6799 95.9306C18.9588 97.2255 26.2459 97.8775 34.5336 97.8775C42.8307 97.8775 50.1177 97.2301 56.3966 95.9306C62.4249 94.6723 65.4437 93.2954 65.4437 91.7984V91.7984Z" fill="url(#paint3_radial_2_84)"/>
<path fill-rule="evenodd" clip-rule="evenodd" d="M6.9532 83.8317C6.9532 85.0901 9.6385 86.1646 15.0129 87.0552C20.3929 87.9458 26.8715 88.3911 34.4601 88.3911C42.1014 88.3911 48.6083 87.9458 53.9827 87.0552C59.3627 86.1585 62.0499 85.0901 62.0499 83.8317C62.0499 82.5794 59.3627 81.5232 53.9827 80.6736C48.6083 79.777 42.1014 79.3317 34.4601 79.3317C26.8715 79.3317 20.3929 79.777 15.0129 80.6736C9.6385 81.5232 6.9532 82.5794 6.9532 83.8317V83.8317Z" fill="#A9A499"/>
<path fill-rule="evenodd" clip-rule="evenodd" d="M9.05806 83.6539C9.05806 84.704 11.5229 85.6189 16.4488 86.3849C21.4236 87.157 27.3784 87.5415 34.3131 87.5415C41.2986 87.5415 47.2534 87.157 52.1793 86.3849C57.1542 85.6189 59.6416 84.704 59.6416 83.6539C59.6416 82.5976 57.1542 81.6888 52.1793 80.9167C47.2534 80.1447 41.2986 79.7587 34.3131 79.7587C27.3784 79.7587 21.4236 80.1447 16.4488 80.9167C11.5229 81.6888 9.05806 82.5976 9.05806 83.6539V83.6539Z" fill="url(#paint4_linear_2_84)"/>
<path fill-rule="evenodd" clip-rule="evenodd" d="M49.9916 82.4958C45.5689 81.6888 40.2171 81.2784 33.9382 81.2784C27.9024 81.2784 22.675 81.6645 18.2598 82.4365C13.8861 83.2086 11.5758 84.1341 11.3251 85.2329C13.3339 85.9214 16.3754 86.467 20.4457 86.8712C24.6631 87.3165 29.2856 87.5414 34.3132 87.5414C39.0393 87.5414 43.4338 87.3576 47.5042 86.9959C51.3691 86.5916 54.4087 86.0825 56.6248 85.4761V85.4107C56.6248 84.277 54.4162 83.3089 49.9916 82.4958V82.4958Z" fill="url(#paint5_radial_2_84)"/>
<path fill-rule="evenodd" clip-rule="evenodd" d="M69.3596 8.81847C69.3596 6.6695 65.9959 4.80625 59.2591 3.2272C52.4281 1.60559 44.31 0.792511 34.9162 0.792511C25.4658 0.792511 17.3533 1.60559 10.5675 3.2272C3.83073 4.80625 0.467036 6.6695 0.467036 8.81847V14.7137H4.53739C7.50535 15.931 11.6492 16.9219 16.9783 17.694C22.4545 18.425 28.4319 18.7867 34.9162 18.7867C41.3948 18.7867 47.3496 18.425 52.7824 17.694C58.104 16.9645 62.2478 15.9721 65.2158 14.7137H69.3596L69.2861 9.36559L69.3596 8.81847V8.81847Z" fill="#88847B"/>
<path fill-rule="evenodd" clip-rule="evenodd" d="M10.5675 20.2472C17.2497 21.7837 25.3697 22.5558 34.9162 22.5558C44.4118 22.5558 52.5317 21.7837 59.2591 20.2472C65.9959 18.7032 69.3596 16.8627 69.3596 14.7137C69.3596 12.5648 65.9959 10.7182 59.2591 9.18173C52.5317 7.68475 44.4118 6.93094 34.9162 6.93094C25.3697 6.93094 17.2497 7.67867 10.5675 9.18173C3.83073 10.7243 0.467036 12.5648 0.467036 14.7137C0.467036 16.8627 3.83073 18.7032 10.5675 20.2472V20.2472Z" fill="url(#paint6_linear_2_84)"/>
<path fill-rule="evenodd" clip-rule="evenodd" d="M10.5675 20.5497C17.2497 22.0512 25.3697 22.799 34.9162 22.799C44.4118 22.799 52.5317 22.0512 59.2591 20.5497C65.9959 19.0117 69.3596 17.1651 69.3596 15.0162C69.3596 12.8672 65.9959 11.0267 59.2591 9.48417C52.5317 7.94615 44.4118 7.1741 34.9162 7.1741C25.3697 7.1741 17.2497 7.94615 10.5675 9.48417C3.83073 11.0267 0.467036 12.8672 0.467036 15.0162C0.467036 17.1651 3.83073 19.0117 10.5675 20.5497V20.5497Z" fill="url(#paint7_linear_2_84)"/>
<path fill-rule="evenodd" clip-rule="evenodd" d="M2.27806 15.2C2.27806 17.0237 5.28937 18.6256 11.3252 20.004C17.4495 21.3809 24.7875 22.0876 33.3352 22.1287C41.9244 22.2123 49.2642 21.6423 55.3434 20.4311C61.4244 19.1727 64.4866 17.6104 64.5375 15.7471C64.5375 13.8823 61.4979 12.2805 55.4169 10.9446C49.3886 9.56617 42.0789 8.83668 33.4822 8.75309C24.8911 8.71813 17.5532 9.30629 11.4722 10.516C5.39113 11.7759 2.32329 13.3367 2.27806 15.2V15.2Z" fill="url(#paint8_linear_2_84)"/>
<path fill-rule="evenodd" clip-rule="evenodd" d="M65.4437 15.931C65.4437 14.4294 62.4249 13.051 56.3966 11.7926C50.1177 10.4993 42.8307 9.85184 34.5336 9.85184C26.2459 9.85184 18.9588 10.4993 12.6799 11.7926C6.64976 13.051 3.6328 14.4294 3.6328 15.931C3.6328 16.2106 3.73645 16.4538 3.93431 16.6605L7.10014 24.2593H62.0499L65.1403 16.6605C65.3401 16.4538 65.4437 16.2106 65.4437 15.931V15.931Z" fill="url(#paint9_radial_2_84)"/>
<path fill-rule="evenodd" clip-rule="evenodd" d="M53.9827 20.6682C48.6083 19.7776 42.1014 19.3323 34.4601 19.3323C26.8715 19.3323 20.3929 19.7776 15.0129 20.6682C9.6385 21.5649 6.9532 22.6393 6.9532 23.8916C6.9532 25.15 9.6385 26.2245 15.0129 27.1151C20.3929 28.0057 26.8715 28.451 34.4601 28.451C42.0506 28.451 48.5575 28.0057 53.9827 27.1151C59.3627 26.2245 62.0499 25.15 62.0499 23.8916C62.0499 22.6393 59.3627 21.5649 53.9827 20.6682Z" fill="#A9A499"/>
<path fill-rule="evenodd" clip-rule="evenodd" d="M59.636 24.0754C59.636 23.0253 57.1467 22.1104 52.1793 21.3398C47.2535 20.6088 41.2987 20.2471 34.3131 20.2471C27.3276 20.2471 21.3728 20.6088 16.4488 21.3398C11.5229 22.1104 9.0581 23.0253 9.0581 24.0754C9.0581 25.1681 11.5229 26.0998 16.4488 26.8718C21.3728 27.6028 27.3276 27.9645 34.3131 27.9645C41.2987 27.9645 47.2535 27.6028 52.1793 26.8718C57.1467 26.0998 59.636 25.1681 59.636 24.0754V24.0754Z" fill="url(#paint10_linear_2_84)"/>
<path fill-rule="evenodd" clip-rule="evenodd" d="M11.3251 22.4964C11.5758 23.5891 13.8861 24.5207 18.2598 25.2928C22.675 26.0648 27.9024 26.4448 33.9382 26.4448C40.2171 26.4448 45.5689 26.0405 49.9916 25.2274C54.4162 24.4204 56.6248 23.4462 56.6248 22.3125V22.2532C51.8986 20.9112 44.4646 20.2471 34.3132 20.2471C29.2347 20.2471 24.6122 20.4492 20.4457 20.852C16.3226 21.2562 13.2831 21.8079 11.3251 22.4964V22.4964Z" fill="url(#paint11_radial_2_84)"/>
<g opacity="0.584362">
<path opacity="0.584362" d="M32.9532 46.021C25.5641 46.2046 18.0122 46.3669 10.8924 48.4528C9.73084 48.8775 7.718 49.5642 8.09649 51.1721C9.09712 52.9464 11.4116 53.156 13.1674 53.7127C23.4631 55.7686 34.1201 55.7624 44.5881 55.1551C49.477 54.6687 54.5781 54.4565 59.1122 52.4619C60.2705 52.1031 61.1278 50.484 59.9471 49.6183C56.976 47.6104 53.1798 47.4586 49.744 46.8601C44.1749 46.1916 38.5582 45.9893 32.9532 46.021ZM34.7916 47.7691C41.3048 47.8807 47.931 47.8335 54.2864 49.3774C54.6754 49.4831 55.5583 49.7897 54.7307 49.9834C49.6491 51.4966 44.2593 51.4491 38.997 51.7082C31.2616 51.7795 23.3862 51.8619 15.803 50.3004C15.4753 50.1838 13.8576 49.8399 14.8603 49.5406C20.0167 48.0074 25.491 48.071 30.8314 47.8102C32.1512 47.7764 33.4714 47.7659 34.7916 47.7691V47.7691Z" fill="url(#paint12_linear_2_84)"/>
<path opacity="0.584362" d="M32.9532 36.5423C25.5616 36.7157 18.0156 36.8903 10.8923 38.9664C9.71559 39.3726 7.54393 40.1893 8.15769 41.8333C9.45887 43.6332 11.9525 43.841 13.9104 44.3895C24.539 46.3473 35.4625 46.314 46.2178 45.5477C50.6407 45.0311 55.2692 44.8103 59.3266 42.8667C60.4976 42.4458 61.0206 40.7628 59.8245 40.0386C56.6187 38.0386 52.6643 37.8807 49.0216 37.2917C43.6883 36.6977 38.3165 36.5019 32.9532 36.5423ZM35.864 38.2905C42.0793 38.4464 48.416 38.3978 54.4625 39.9531C54.9295 40.0776 55.4261 40.3599 54.7076 40.5125C49.3885 42.063 43.7555 41.9981 38.2541 42.2463C30.7652 42.2756 23.1385 42.354 15.8035 40.8119C15.4553 40.6761 14.4274 40.5227 14.5385 40.2095C18.4575 38.7473 22.7796 38.8166 26.9245 38.4668C29.9022 38.3284 32.8832 38.2685 35.864 38.2905V38.2905Z" fill="url(#paint13_linear_2_84)"/>
<path opacity="0.584362" d="M32.9532 27.1958C25.5661 27.3753 17.9919 27.5381 10.8923 29.6276C9.70411 30.0314 7.5464 30.8462 8.15768 32.4867C9.45099 34.2966 11.9585 34.4868 13.918 35.0507C24.6744 37.0118 35.7242 36.9831 46.6033 36.1694C50.9489 35.6299 55.542 35.4378 59.4951 33.4191C60.6054 32.9507 60.9265 31.3263 59.8015 30.6765C56.5856 28.6971 52.6598 28.5225 49.0132 27.9507C43.6847 27.3413 38.3128 27.1636 32.9532 27.1958ZM35.864 28.9439C42.0807 29.1031 48.4107 29.0502 54.4625 30.6065C54.8875 30.7172 55.4406 31.0008 54.7306 31.1582C49.4861 32.7067 43.9331 32.6409 38.5068 32.894C31.0215 32.954 23.3991 32.9889 16.0628 31.5389C15.569 31.3726 14.7647 31.257 14.4772 30.9096C17.9668 29.4915 21.8641 29.5553 25.5829 29.1946C29.0062 28.9984 32.4354 28.9193 35.864 28.9439Z" fill="url(#paint14_linear_2_84)"/>
<path opacity="0.584362" d="M32.9532 73.7966C25.5616 73.97 18.0156 74.1446 10.8923 76.2207C9.71559 76.6269 7.54393 77.4436 8.15769 79.0876C9.45887 80.8875 11.9525 81.0952 13.9104 81.6437C24.539 83.6011 35.4625 83.5708 46.2178 82.802C50.6407 82.2854 55.2692 82.0645 59.3266 80.1209C60.4976 79.7001 61.0206 78.0171 59.8245 77.2929C56.6187 75.2929 52.6643 75.135 49.0216 74.546C43.6883 73.952 38.3165 73.7562 32.9532 73.7966V73.7966ZM35.864 75.5447C42.0793 75.7007 48.416 75.6521 54.4625 77.2074C55.0788 77.3486 55.332 77.6566 54.6004 77.8134C48.7855 79.3955 42.6672 79.3267 36.6759 79.5245C29.5919 79.4752 22.3643 79.5574 15.45 77.9688C15.0773 77.8558 13.9209 77.5393 14.8679 77.3006C20.2635 75.743 26.0167 75.8062 31.6127 75.568C33.0296 75.547 34.4469 75.5302 35.864 75.5447V75.5447Z" fill="url(#paint15_linear_2_84)"/>
<path opacity="0.584362" d="M32.9533 64.5821C25.5663 64.7665 17.9908 64.9226 10.8924 67.0139C9.72059 67.4287 7.64692 68.1684 8.11949 69.7876C9.25129 71.5918 11.6815 71.807 13.5351 72.3437C23.7337 74.3318 34.241 74.3158 44.5882 73.7162C49.477 73.2298 54.5781 73.0175 59.1122 71.0229C60.2688 70.6628 61.1286 69.0451 59.9472 68.1793C57.1041 66.251 53.5398 66.0578 50.2381 65.4911C44.5259 64.7504 38.7185 64.5538 32.9533 64.5821V64.5821ZM35.8641 66.3302C42.0754 66.4945 48.4025 66.4309 54.4473 67.9929C54.8671 68.0964 55.4541 68.3849 54.7307 68.5445C49.5671 70.0785 44.0963 70.0155 38.752 70.2748C31.0965 70.3348 23.3075 70.41 15.803 68.8614C15.4753 68.7449 13.8576 68.401 14.8603 68.1016C19.9928 66.5641 25.4928 66.6349 30.8314 66.3713C32.5086 66.3329 34.1865 66.3162 35.8641 66.3302Z" fill="url(#paint16_linear_2_84)"/>
<path opacity="0.584362" d="M31.6356 55.2511C24.5912 55.4965 17.3811 55.6759 10.6165 57.7606C9.50692 58.1484 7.54548 59.0251 8.15767 60.5265C9.44188 62.3386 11.9547 62.5208 13.918 63.0904C24.674 65.0528 35.7244 65.0275 46.6033 64.2092C50.9423 63.6751 55.545 63.4772 59.4951 61.4589C60.6069 60.9866 60.9334 59.375 59.8015 58.7163C56.5137 56.7047 52.4588 56.5401 48.7328 55.9581C43.0571 55.3434 37.3407 55.1719 31.6356 55.2511ZM34.7915 56.9837C41.3047 57.0919 47.9312 57.0548 54.2863 58.592C54.687 58.7034 55.5788 59.0068 54.7076 59.2135C49.3907 60.7482 43.7609 60.7039 38.2617 60.9394C30.7699 60.9834 23.1434 61.0392 15.8034 59.5129C15.4138 59.3724 14.6491 59.2451 14.4772 58.9494C17.9666 57.5383 21.864 57.5996 25.5829 57.2344C28.6492 57.0646 31.7205 56.9727 34.7915 56.9837V56.9837Z" fill="url(#paint17_linear_2_84)"/>
</g>
<defs>
<linearGradient id="paint0_linear_2_84" x1="69.3615" y1="92.9824" x2="0.467037" y2="92.9824" gradientUnits="userSpaceOnUse">
<stop stop-color="#C5C0B3"/>
<stop offset="1" stop-color="#64615A"/>
</linearGradient>
<linearGradient id="paint1_linear_2_84" x1="69.3615" y1="92.7392" x2="0.467037" y2="92.7392" gradientUnits="userSpaceOnUse">
<stop stop-color="#A29D92"/>
<stop offset="1" stop-color="#64615A"/>
</linearGradient>
<linearGradient id="paint2_linear_2_84" x1="64.5422" y1="92.0078" x2="2.28514" y2="92.857" gradientUnits="userSpaceOnUse">
<stop stop-color="#66635B"/>
<stop offset="1" stop-color="#64615A"/>
</linearGradient>
<radialGradient id="paint3_radial_2_84" cx="0" cy="0" r="1" gradientUnits="userSpaceOnUse" gradientTransform="translate(39.5113 90.8225) rotate(-178.072) scale(35.673 28.7877)">
<stop stop-color="#64615A"/>
<stop offset="0.2588" stop-color="#67655D"/>
<stop offset="0.5059" stop-color="#737068"/>
<stop offset="0.749" stop-color="#868279"/>
<stop offset="0.9843" stop-color="#A09B90"/>
<stop offset="1" stop-color="#A29D92"/>
</radialGradient>
<linearGradient id="paint4_linear_2_84" x1="59.5805" y1="83.6508" x2="9.00266" y2="83.6508" gradientUnits="userSpaceOnUse">
<stop stop-color="#67645C"/>
<stop offset="0.3922" stop-color="#7B786F"/>
<stop offset="1" stop-color="#A29D92"/>
</linearGradient>
<radialGradient id="paint5_radial_2_84" cx="0" cy="0" r="1" gradientUnits="userSpaceOnUse" gradientTransform="translate(35.1424 89.4867) rotate(-85.6381) scale(9.37387 24.9529)">
<stop stop-color="white"/>
<stop offset="0.1176" stop-color="#F5FFF4"/>
<stop offset="0.3216" stop-color="#E7FFE5"/>
<stop offset="0.5804" stop-color="#AAEEA7"/>
<stop offset="0.8824" stop-color="#65D05F"/>
<stop offset="1" stop-color="#40AA3A"/>
</radialGradient>
<linearGradient id="paint6_linear_2_84" x1="69.3615" y1="14.7441" x2="0.467037" y2="14.7441" gradientUnits="userSpaceOnUse">
<stop stop-color="#C5C0B3"/>
<stop offset="1" stop-color="#64615A"/>
</linearGradient>
<linearGradient id="paint7_linear_2_84" x1="69.3615" y1="14.9873" x2="0.467037" y2="14.9873" gradientUnits="userSpaceOnUse">
<stop stop-color="#A29D92"/>
<stop offset="1" stop-color="#64615A"/>
</linearGradient>
<linearGradient id="paint8_linear_2_84" x1="64.5375" y1="15.7192" x2="2.28019" y2="14.8724" gradientUnits="userSpaceOnUse">
<stop stop-color="#66635B"/>
<stop offset="1" stop-color="#64615A"/>
</linearGradient>
<radialGradient id="paint9_radial_2_84" cx="0" cy="0" r="1" gradientUnits="userSpaceOnUse" gradientTransform="translate(39.5122 16.9021) rotate(180) scale(35.6849 28.7798)">
<stop stop-color="#64615A"/>
<stop offset="0.2588" stop-color="#67655D"/>
<stop offset="0.5059" stop-color="#737068"/>
<stop offset="0.749" stop-color="#868279"/>
<stop offset="0.9843" stop-color="#A09B90"/>
<stop offset="1" stop-color="#A29D92"/>
</radialGradient>
<linearGradient id="paint10_linear_2_84" x1="59.5806" y1="24.1058" x2="9.0027" y2="24.1058" gradientUnits="userSpaceOnUse">
<stop stop-color="#67645C"/>
<stop offset="0.3922" stop-color="#7B786F"/>
<stop offset="1" stop-color="#A29D92"/>
</linearGradient>
<radialGradient id="paint11_radial_2_84" cx="0" cy="0" r="1" gradientUnits="userSpaceOnUse" gradientTransform="translate(35.1414 18.2391) rotate(85.6381) scale(9.37387 24.9529)">
<stop stop-color="white"/>
<stop offset="0.1176" stop-color="#F5FFF4"/>
<stop offset="0.3216" stop-color="#E7FFE6"/>
<stop offset="0.5804" stop-color="#AAEEA7"/>
<stop offset="0.8824" stop-color="#65D05F"/>
<stop offset="1" stop-color="#40AA3A"/>
</radialGradient>
<linearGradient id="paint12_linear_2_84" x1="8.04197" y1="55.2413" x2="60.5129" y2="55.2413" gradientUnits="userSpaceOnUse">
<stop stop-color="#40AA3A" stop-opacity="0.5"/>
<stop offset="0.500019" stop-color="#40AA3A" stop-opacity="0"/>
<stop offset="1" stop-color="#40AA3A"/>
</linearGradient>
<linearGradient id="paint13_linear_2_84" x1="8.0419" y1="55.2413" x2="60.5128" y2="55.2413" gradientUnits="userSpaceOnUse">
<stop stop-color="#40AA3A" stop-opacity="0.5"/>
<stop offset="0.500019" stop-color="#40AA3A" stop-opacity="0"/>
<stop offset="1" stop-color="#40AA3A"/>
</linearGradient>
<linearGradient id="paint14_linear_2_84" x1="8.04189" y1="55.2413" x2="60.5128" y2="55.2413" gradientUnits="userSpaceOnUse">
<stop stop-color="#40AA3A"/>
<stop offset="0.500019" stop-color="#40AA3A" stop-opacity="0.5"/>
<stop offset="1" stop-color="#40AA3A"/>
</linearGradient>
<linearGradient id="paint15_linear_2_84" x1="8.0419" y1="55.2413" x2="60.5128" y2="55.2413" gradientUnits="userSpaceOnUse">
<stop stop-color="#40AA3A" stop-opacity="0.5"/>
<stop offset="0.500019" stop-color="#40AA3A" stop-opacity="0"/>
<stop offset="1" stop-color="#40AA3A"/>
</linearGradient>
<linearGradient id="paint16_linear_2_84" x1="8.04201" y1="55.2413" x2="60.5129" y2="55.2413" gradientUnits="userSpaceOnUse">
<stop stop-color="#40AA3A" stop-opacity="0.5"/>
<stop offset="0.500019" stop-color="#40AA3A" stop-opacity="0"/>
<stop offset="1" stop-color="#40AA3A"/>
</linearGradient>
<linearGradient id="paint17_linear_2_84" x1="8.04187" y1="55.2413" x2="60.5128" y2="55.2413" gradientUnits="userSpaceOnUse">
<stop stop-color="#40AA3A" stop-opacity="0.5"/>
<stop offset="0.500019" stop-color="#40AA3A" stop-opacity="0"/>
<stop offset="1" stop-color="#40AA3A"/>
</linearGradient>
</defs>
</svg>
