<svg width="49" height="35" viewBox="0 0 49 35" fill="none" xmlns="http://www.w3.org/2000/svg">
<ellipse cx="18.0923" cy="17.8149" rx="17.2793" ry="17" fill="#40AA3A"/>
<path d="M24.0986 9.03143L37.198 3.27503L40.5757 10.282L28.6951 15.3526C26.5352 11.8509 25.4442 10.349 24.0986 9.03143Z" fill="#40AA3A"/>
<path d="M39.9159 4.41533C38.9582 4.74964 38.6874 5.82749 38.0757 7.04487L38.7223 8.39611C38.8046 6.94435 38.567 5.87374 40.0327 5.21863C41.8147 4.689 42.8361 6.34854 45.1762 6.13667C47.1436 5.7471 47.8793 5.01919 48.6831 3.49728C49.1917 2.80828 48.0634 2.19104 47.748 3.26776C47.2004 5.00546 46.6886 4.79233 44.9424 5.21863C42.7867 5.67445 41.2242 4.22575 39.9159 4.41533Z" fill="#40AA3A"/>
</svg>
