<svg width="160" height="112" viewBox="0 0 160 112" fill="none" xmlns="http://www.w3.org/2000/svg">
<circle cx="50" cy="61.0403" r="50" fill="#40AA3A"/>
<path d="M84.5089 26.2302L111.8 14.0402L118.838 28.8784L94.0853 39.6162C89.5854 32.2008 87.3123 29.0205 84.5089 26.2302Z" fill="#40AA3A"/>
<path d="M121.5 7.54038C117.404 8.99697 116.245 13.6932 113.629 18.9975L116.395 24.8849C116.747 18.5595 115.73 13.8948 122 11.0404C129.622 8.73275 133.99 15.9635 144 15.0404C152.415 13.343 155.561 10.1714 159 3.54038C161.175 0.538368 156.349 -2.15102 155 2.54035C152.658 10.1116 150.469 9.18297 143 11.0404C133.779 13.0264 127.096 6.71434 121.5 7.54038Z" fill="#40AA3A"/>
</svg>
