<svg width="35" height="35" viewBox="0 0 35 35" fill="none" xmlns="http://www.w3.org/2000/svg">
<path d="M17.5354 0.373993C16.1486 0.558484 14.881 2.16822 14.7794 4.29291V4.29444C14.7752 4.3847 14.7722 4.47558 14.7722 4.56767C14.7722 5.81299 15.1932 6.91392 15.8095 7.67434L16.5629 8.60388L15.4029 8.82711C14.6031 8.98123 14.0174 9.41331 13.5151 10.1193C13.3451 10.3583 13.189 10.6298 13.0457 10.9276C8.76471 10.4375 5.76118 9.32472 5.76118 8.03906C5.76118 6.71756 8.93411 5.60483 13.4058 5.14915C13.3899 4.95812 13.3817 4.76426 13.3817 4.56798V4.56782C13.3817 4.50389 13.3835 4.44041 13.3852 4.37679C6.21086 4.89205 0.938284 6.5954 0.938135 8.61689C0.937986 10.5448 5.7341 12.1834 12.4012 12.7778C12.3871 12.8343 12.3719 12.8893 12.3584 12.9465C12.1828 13.6863 12.057 14.4855 11.9664 15.3082C11.9657 15.3082 11.9649 15.3082 11.9642 15.3084C11.9331 15.5864 11.9062 15.867 11.8827 16.1491L11.8864 16.1487C11.7885 17.3495 11.7546 18.5751 11.7456 19.7221H14.4161L14.5735 21.8836C9.49643 21.5035 5.76126 20.285 5.76126 18.8511C5.76126 17.8432 7.60861 16.9568 10.4685 16.3905C10.4909 16.0818 10.5176 15.7729 10.5486 15.4648C4.86295 16.1767 0.938358 17.6848 0.93821 19.4291C0.938061 21.5732 6.86862 23.3597 14.7095 23.7498L15.1514 29.8211C15.9326 30.0226 16.9995 30.1378 18.0543 30.1307C19.0802 30.1237 20.0806 30.0005 20.7661 29.8263L21.1577 23.7491C28.9926 23.3579 34.9169 21.572 34.9169 19.4291C34.9169 17.6776 30.9591 16.1644 25.2352 15.4562C25.2578 15.7621 25.2766 16.0686 25.2914 16.3748C28.1843 16.9403 30.0504 17.8339 30.0504 18.8511C30.0504 20.2851 26.3449 21.5036 21.278 21.8837L21.4171 19.722H23.9601C23.9592 18.5717 23.9507 17.342 23.8833 16.1377C23.884 16.1377 23.8848 16.1378 23.8857 16.138C23.8697 15.8573 23.8505 15.5784 23.8275 15.3018L23.826 15.3017C23.7561 14.4525 23.6499 13.6285 23.4878 12.8686C23.4811 12.8378 23.4741 12.8075 23.4673 12.7769C30.1274 12.1812 34.9169 10.5435 34.9169 8.61697C34.9169 6.5782 29.5545 4.86229 22.2861 4.36339C22.2879 4.43151 22.29 4.49948 22.29 4.56798C22.29 4.75825 22.2823 4.94624 22.2674 5.13172C26.8199 5.5759 30.0504 6.70036 30.0504 8.03914C30.0504 9.31817 27.1017 10.4256 22.869 10.9198C22.7194 10.5938 22.552 10.2995 22.3659 10.0441C21.8577 9.34641 21.2452 8.91692 20.3467 8.77444L19.1628 8.58645L19.9095 7.62822C20.425 6.96682 20.7958 6.05159 20.8809 5.02007H20.8811C20.8932 4.87166 20.8997 4.72096 20.8997 4.56813C20.8997 4.50952 20.8981 4.45153 20.8961 4.39384C20.895 4.3573 20.8937 4.32092 20.8919 4.28469H20.8917C20.7816 2.02079 19.366 0.380234 17.8357 0.380234C17.6476 0.380234 17.5406 0.373612 17.5359 0.374145H17.5356L17.5354 0.373993ZM13.4587 25.7267C6.23377 26.2332 0.916931 27.9423 0.916931 29.9737C0.916931 32.404 8.5238 34.374 17.9074 34.374C27.291 34.374 34.8978 32.4041 34.8978 29.9738C34.8978 27.9486 29.6139 26.244 22.4232 25.7317L22.3745 26.4874C26.8655 26.9483 30.0431 28.0824 30.0431 29.4096C30.0431 31.1457 24.6096 32.5528 17.907 32.5528C11.2045 32.5528 5.77093 31.1455 5.77093 29.4097C5.77093 28.0753 8.98352 26.936 13.5137 26.48L13.4587 25.7269L13.4587 25.7267Z" fill="#40AA3A"/>
</svg>
