<svg width="100" height="100" viewBox="0 0 100 100" fill="none" xmlns="http://www.w3.org/2000/svg">
<path d="M50 48.0676C43.125 48.0676 37.5 45.8245 33.125 41.3382C28.75 36.8519 26.5625 31.0837 26.5625 24.0338C26.5625 16.9839 28.75 11.2158 33.125 6.72947C37.5 2.24316 43.125 0 50 0C56.875 0 62.5 2.24316 66.875 6.72947C71.25 11.2158 73.4375 16.9839 73.4375 24.0338C73.4375 31.0837 71.25 36.8519 66.875 41.3382C62.5 45.8245 56.875 48.0676 50 48.0676ZM0 99.5V84.4388C0 80.3798 0.989583 76.9082 2.96875 74.0242C4.94792 71.1401 7.5 68.9503 10.625 67.4549C17.6042 64.2504 24.2969 61.847 30.7031 60.2448C37.1094 58.6425 43.5417 57.8414 50 57.8414C56.4583 57.8414 62.8646 58.6692 69.2187 60.3249C75.5729 61.9805 82.2396 64.3572 89.2187 67.4549C92.4479 68.9503 95.0521 71.1401 97.0312 74.0242C99.0104 76.9082 100 80.3798 100 84.4388V99.5H0ZM9.375 89.8865H90.625V84.4388C90.625 82.7297 90.1302 81.1008 89.1406 79.5519C88.151 78.0031 86.9271 76.8548 85.4687 76.1071C78.8021 72.7958 72.7083 70.5259 67.1875 69.2975C61.6667 68.0691 55.9375 67.4549 50 67.4549C44.0625 67.4549 38.2813 68.0691 32.6563 69.2975C27.0313 70.5259 20.9375 72.7958 14.375 76.1071C12.9167 76.8548 11.7187 78.0031 10.7812 79.5519C9.84375 81.1008 9.375 82.7297 9.375 84.4388V89.8865ZM50 38.4541C54.0625 38.4541 57.4219 37.0922 60.0781 34.3684C62.7344 31.6445 64.0625 28.1997 64.0625 24.0338C64.0625 19.868 62.7344 16.4231 60.0781 13.6993C57.4219 10.9754 54.0625 9.61353 50 9.61353C45.9375 9.61353 42.5781 10.9754 39.9219 13.6993C37.2656 16.4231 35.9375 19.868 35.9375 24.0338C35.9375 28.1997 37.2656 31.6445 39.9219 34.3684C42.5781 37.0922 45.9375 38.4541 50 38.4541Z" fill="#CF2323"/>
<circle cx="50" cy="24" r="15" fill="#CF2323"/>
<path d="M9 85C9 79.4772 13.4772 75 19 75H81C86.5228 75 91 79.4772 91 85V90H9V85Z" fill="#CF2323"/>
<path d="M90 82.5C90 91.0604 72.0914 89.5 50 89.5C27.9086 89.5 10 91.0604 10 82.5C10 73.9396 27.9086 67 50 67C72.0914 67 90 73.9396 90 82.5Z" fill="#CF2323"/>
</svg>
