<svg width="100" height="100" viewBox="0 0 100 100" fill="none" xmlns="http://www.w3.org/2000/svg">
<path d="M50 48.0676C43.125 48.0676 37.5 45.8245 33.125 41.3382C28.75 36.8519 26.5625 31.0837 26.5625 24.0338C26.5625 16.9839 28.75 11.2158 33.125 6.72947C37.5 2.24316 43.125 0 50 0C56.875 0 62.5 2.24316 66.875 6.72947C71.25 11.2158 73.4375 16.9839 73.4375 24.0338C73.4375 31.0837 71.25 36.8519 66.875 41.3382C62.5 45.8245 56.875 48.0676 50 48.0676ZM0 99.5V84.4388C0 80.3798 0.989583 76.9082 2.96875 74.0242C4.94792 71.1401 7.5 68.9503 10.625 67.4549C17.6042 64.2504 24.2969 61.847 30.7031 60.2448C37.1094 58.6425 43.5417 57.8414 50 57.8414C56.4583 57.8414 62.8646 58.6692 69.2188 60.3249C75.5729 61.9805 82.2396 64.3572 89.2188 67.4549C92.4479 68.9503 95.0521 71.1401 97.0312 74.0242C99.0104 76.9082 100 80.3798 100 84.4388V99.5H0Z" fill="#40AA3A"/>
</svg>
